%TF.GenerationSoftware,KiCad,Pcbnew,7.0.10*%
%TF.CreationDate,2024-06-02T15:41:42+02:00*%
%TF.ProjectId,eBoard_pcb,65426f61-7264-45f7-9063-622e6b696361,rev?*%
%TF.SameCoordinates,Original*%
%TF.FileFunction,Drillmap*%
%TF.FilePolarity,Positive*%
%FSLAX45Y45*%
G04 Gerber Fmt 4.5, Leading zero omitted, Abs format (unit mm)*
G04 Created by KiCad (PCBNEW 7.0.10) date 2024-06-02 15:41:42*
%MOMM*%
%LPD*%
G01*
G04 APERTURE LIST*
%ADD10C,0.100000*%
%ADD11C,0.200000*%
G04 APERTURE END LIST*
D10*
X10414000Y-5627491D02*
X23114000Y-5627491D01*
X23114000Y-7701098D01*
X10414000Y-7701098D01*
X10414000Y-5627491D01*
D11*
D10*
X15202500Y-7136950D02*
X15277500Y-7211950D01*
X15277500Y-7136950D02*
X15202500Y-7211950D01*
X15402500Y-7136950D02*
X15477500Y-7211950D01*
X15477500Y-7136950D02*
X15402500Y-7211950D01*
X15602500Y-7136950D02*
X15677500Y-7211950D01*
X15677500Y-7136950D02*
X15602500Y-7211950D01*
X15802500Y-7136950D02*
X15877500Y-7211950D01*
X15877500Y-7136950D02*
X15802500Y-7211950D01*
X16326500Y-7136950D02*
X16401500Y-7211950D01*
X16401500Y-7136950D02*
X16326500Y-7211950D01*
X16526500Y-7136950D02*
X16601500Y-7211950D01*
X16601500Y-7136950D02*
X16526500Y-7211950D01*
X16726500Y-7136950D02*
X16801500Y-7211950D01*
X16801500Y-7136950D02*
X16726500Y-7211950D01*
X16926500Y-7136950D02*
X17001500Y-7211950D01*
X17001500Y-7136950D02*
X16926500Y-7211950D01*
X17488500Y-7136950D02*
X17563500Y-7211950D01*
X17563500Y-7136950D02*
X17488500Y-7211950D01*
X17688500Y-7136950D02*
X17763500Y-7211950D01*
X17763500Y-7136950D02*
X17688500Y-7211950D01*
X17888500Y-7136950D02*
X17963500Y-7211950D01*
X17963500Y-7136950D02*
X17888500Y-7211950D01*
X18088500Y-7136950D02*
X18163500Y-7211950D01*
X18163500Y-7136950D02*
X18088500Y-7211950D01*
X18612500Y-7136950D02*
X18687500Y-7211950D01*
X18687500Y-7136950D02*
X18612500Y-7211950D01*
X18812500Y-7136950D02*
X18887500Y-7211950D01*
X18887500Y-7136950D02*
X18812500Y-7211950D01*
X19012500Y-7136950D02*
X19087500Y-7211950D01*
X19087500Y-7136950D02*
X19012500Y-7211950D01*
X19212500Y-7136950D02*
X19287500Y-7211950D01*
X19287500Y-7136950D02*
X19212500Y-7211950D01*
X19882500Y-7136950D02*
X19957500Y-7211950D01*
X19957500Y-7136950D02*
X19882500Y-7211950D01*
X20082500Y-7136950D02*
X20157500Y-7211950D01*
X20157500Y-7136950D02*
X20082500Y-7211950D01*
X20282500Y-7136950D02*
X20357500Y-7211950D01*
X20357500Y-7136950D02*
X20282500Y-7211950D01*
X20482500Y-7136950D02*
X20557500Y-7211950D01*
X20557500Y-7136950D02*
X20482500Y-7211950D01*
X20990500Y-7136950D02*
X21065500Y-7211950D01*
X21065500Y-7136950D02*
X20990500Y-7211950D01*
X21190500Y-7136950D02*
X21265500Y-7211950D01*
X21265500Y-7136950D02*
X21190500Y-7211950D01*
X21390500Y-7136950D02*
X21465500Y-7211950D01*
X21465500Y-7136950D02*
X21390500Y-7211950D01*
X21590500Y-7136950D02*
X21665500Y-7211950D01*
X21665500Y-7136950D02*
X21590500Y-7211950D01*
X22166610Y-6627810D02*
X22241610Y-6702810D01*
X22241610Y-6627810D02*
X22166610Y-6702810D01*
X22172510Y-7146660D02*
X22247510Y-7221660D01*
X22247510Y-7146660D02*
X22172510Y-7221660D01*
X22366610Y-6627810D02*
X22441610Y-6702810D01*
X22441610Y-6627810D02*
X22366610Y-6702810D01*
X22372510Y-7146660D02*
X22447510Y-7221660D01*
X22447510Y-7146660D02*
X22372510Y-7221660D01*
X22566610Y-6627810D02*
X22641610Y-6702810D01*
X22641610Y-6627810D02*
X22566610Y-6702810D01*
X22572510Y-7146660D02*
X22647510Y-7221660D01*
X22647510Y-7146660D02*
X22572510Y-7221660D01*
X22766610Y-6627810D02*
X22841610Y-6702810D01*
X22841610Y-6627810D02*
X22766610Y-6702810D01*
X22772510Y-7146660D02*
X22847510Y-7221660D01*
X22847510Y-7146660D02*
X22772510Y-7221660D01*
X15280000Y-5904450D02*
G75*
G03*
X15200000Y-5904450I-40000J0D01*
G01*
X15200000Y-5904450D02*
G75*
G03*
X15280000Y-5904450I40000J0D01*
G01*
X15280000Y-6666450D02*
G75*
G03*
X15200000Y-6666450I-40000J0D01*
G01*
X15200000Y-6666450D02*
G75*
G03*
X15280000Y-6666450I40000J0D01*
G01*
X15534000Y-5904450D02*
G75*
G03*
X15454000Y-5904450I-40000J0D01*
G01*
X15454000Y-5904450D02*
G75*
G03*
X15534000Y-5904450I40000J0D01*
G01*
X15534000Y-6666450D02*
G75*
G03*
X15454000Y-6666450I-40000J0D01*
G01*
X15454000Y-6666450D02*
G75*
G03*
X15534000Y-6666450I40000J0D01*
G01*
X15788000Y-5904450D02*
G75*
G03*
X15708000Y-5904450I-40000J0D01*
G01*
X15708000Y-5904450D02*
G75*
G03*
X15788000Y-5904450I40000J0D01*
G01*
X15788000Y-6666450D02*
G75*
G03*
X15708000Y-6666450I-40000J0D01*
G01*
X15708000Y-6666450D02*
G75*
G03*
X15788000Y-6666450I40000J0D01*
G01*
X16042000Y-5904450D02*
G75*
G03*
X15962000Y-5904450I-40000J0D01*
G01*
X15962000Y-5904450D02*
G75*
G03*
X16042000Y-5904450I40000J0D01*
G01*
X16042000Y-6666450D02*
G75*
G03*
X15962000Y-6666450I-40000J0D01*
G01*
X15962000Y-6666450D02*
G75*
G03*
X16042000Y-6666450I40000J0D01*
G01*
X16296000Y-5904450D02*
G75*
G03*
X16216000Y-5904450I-40000J0D01*
G01*
X16216000Y-5904450D02*
G75*
G03*
X16296000Y-5904450I40000J0D01*
G01*
X16296000Y-6666450D02*
G75*
G03*
X16216000Y-6666450I-40000J0D01*
G01*
X16216000Y-6666450D02*
G75*
G03*
X16296000Y-6666450I40000J0D01*
G01*
X16550000Y-5904450D02*
G75*
G03*
X16470000Y-5904450I-40000J0D01*
G01*
X16470000Y-5904450D02*
G75*
G03*
X16550000Y-5904450I40000J0D01*
G01*
X16550000Y-6666450D02*
G75*
G03*
X16470000Y-6666450I-40000J0D01*
G01*
X16470000Y-6666450D02*
G75*
G03*
X16550000Y-6666450I40000J0D01*
G01*
X16804000Y-5904450D02*
G75*
G03*
X16724000Y-5904450I-40000J0D01*
G01*
X16724000Y-5904450D02*
G75*
G03*
X16804000Y-5904450I40000J0D01*
G01*
X16804000Y-6666450D02*
G75*
G03*
X16724000Y-6666450I-40000J0D01*
G01*
X16724000Y-6666450D02*
G75*
G03*
X16804000Y-6666450I40000J0D01*
G01*
X17058000Y-5904450D02*
G75*
G03*
X16978000Y-5904450I-40000J0D01*
G01*
X16978000Y-5904450D02*
G75*
G03*
X17058000Y-5904450I40000J0D01*
G01*
X17058000Y-6666450D02*
G75*
G03*
X16978000Y-6666450I-40000J0D01*
G01*
X16978000Y-6666450D02*
G75*
G03*
X17058000Y-6666450I40000J0D01*
G01*
X17566000Y-5904450D02*
G75*
G03*
X17486000Y-5904450I-40000J0D01*
G01*
X17486000Y-5904450D02*
G75*
G03*
X17566000Y-5904450I40000J0D01*
G01*
X17566000Y-6666450D02*
G75*
G03*
X17486000Y-6666450I-40000J0D01*
G01*
X17486000Y-6666450D02*
G75*
G03*
X17566000Y-6666450I40000J0D01*
G01*
X17820000Y-5904450D02*
G75*
G03*
X17740000Y-5904450I-40000J0D01*
G01*
X17740000Y-5904450D02*
G75*
G03*
X17820000Y-5904450I40000J0D01*
G01*
X17820000Y-6666450D02*
G75*
G03*
X17740000Y-6666450I-40000J0D01*
G01*
X17740000Y-6666450D02*
G75*
G03*
X17820000Y-6666450I40000J0D01*
G01*
X18074000Y-5904450D02*
G75*
G03*
X17994000Y-5904450I-40000J0D01*
G01*
X17994000Y-5904450D02*
G75*
G03*
X18074000Y-5904450I40000J0D01*
G01*
X18074000Y-6666450D02*
G75*
G03*
X17994000Y-6666450I-40000J0D01*
G01*
X17994000Y-6666450D02*
G75*
G03*
X18074000Y-6666450I40000J0D01*
G01*
X18328000Y-5904450D02*
G75*
G03*
X18248000Y-5904450I-40000J0D01*
G01*
X18248000Y-5904450D02*
G75*
G03*
X18328000Y-5904450I40000J0D01*
G01*
X18328000Y-6666450D02*
G75*
G03*
X18248000Y-6666450I-40000J0D01*
G01*
X18248000Y-6666450D02*
G75*
G03*
X18328000Y-6666450I40000J0D01*
G01*
X18582000Y-5904450D02*
G75*
G03*
X18502000Y-5904450I-40000J0D01*
G01*
X18502000Y-5904450D02*
G75*
G03*
X18582000Y-5904450I40000J0D01*
G01*
X18582000Y-6666450D02*
G75*
G03*
X18502000Y-6666450I-40000J0D01*
G01*
X18502000Y-6666450D02*
G75*
G03*
X18582000Y-6666450I40000J0D01*
G01*
X18836000Y-5904450D02*
G75*
G03*
X18756000Y-5904450I-40000J0D01*
G01*
X18756000Y-5904450D02*
G75*
G03*
X18836000Y-5904450I40000J0D01*
G01*
X18836000Y-6666450D02*
G75*
G03*
X18756000Y-6666450I-40000J0D01*
G01*
X18756000Y-6666450D02*
G75*
G03*
X18836000Y-6666450I40000J0D01*
G01*
X19090000Y-5904450D02*
G75*
G03*
X19010000Y-5904450I-40000J0D01*
G01*
X19010000Y-5904450D02*
G75*
G03*
X19090000Y-5904450I40000J0D01*
G01*
X19090000Y-6666450D02*
G75*
G03*
X19010000Y-6666450I-40000J0D01*
G01*
X19010000Y-6666450D02*
G75*
G03*
X19090000Y-6666450I40000J0D01*
G01*
X19344000Y-5904450D02*
G75*
G03*
X19264000Y-5904450I-40000J0D01*
G01*
X19264000Y-5904450D02*
G75*
G03*
X19344000Y-5904450I40000J0D01*
G01*
X19344000Y-6666450D02*
G75*
G03*
X19264000Y-6666450I-40000J0D01*
G01*
X19264000Y-6666450D02*
G75*
G03*
X19344000Y-6666450I40000J0D01*
G01*
X19852000Y-5904450D02*
G75*
G03*
X19772000Y-5904450I-40000J0D01*
G01*
X19772000Y-5904450D02*
G75*
G03*
X19852000Y-5904450I40000J0D01*
G01*
X19852000Y-6666450D02*
G75*
G03*
X19772000Y-6666450I-40000J0D01*
G01*
X19772000Y-6666450D02*
G75*
G03*
X19852000Y-6666450I40000J0D01*
G01*
X20106000Y-5904450D02*
G75*
G03*
X20026000Y-5904450I-40000J0D01*
G01*
X20026000Y-5904450D02*
G75*
G03*
X20106000Y-5904450I40000J0D01*
G01*
X20106000Y-6666450D02*
G75*
G03*
X20026000Y-6666450I-40000J0D01*
G01*
X20026000Y-6666450D02*
G75*
G03*
X20106000Y-6666450I40000J0D01*
G01*
X20360000Y-5904450D02*
G75*
G03*
X20280000Y-5904450I-40000J0D01*
G01*
X20280000Y-5904450D02*
G75*
G03*
X20360000Y-5904450I40000J0D01*
G01*
X20360000Y-6666450D02*
G75*
G03*
X20280000Y-6666450I-40000J0D01*
G01*
X20280000Y-6666450D02*
G75*
G03*
X20360000Y-6666450I40000J0D01*
G01*
X20614000Y-5904450D02*
G75*
G03*
X20534000Y-5904450I-40000J0D01*
G01*
X20534000Y-5904450D02*
G75*
G03*
X20614000Y-5904450I40000J0D01*
G01*
X20614000Y-6666450D02*
G75*
G03*
X20534000Y-6666450I-40000J0D01*
G01*
X20534000Y-6666450D02*
G75*
G03*
X20614000Y-6666450I40000J0D01*
G01*
X20868000Y-5904450D02*
G75*
G03*
X20788000Y-5904450I-40000J0D01*
G01*
X20788000Y-5904450D02*
G75*
G03*
X20868000Y-5904450I40000J0D01*
G01*
X20868000Y-6666450D02*
G75*
G03*
X20788000Y-6666450I-40000J0D01*
G01*
X20788000Y-6666450D02*
G75*
G03*
X20868000Y-6666450I40000J0D01*
G01*
X21122000Y-5904450D02*
G75*
G03*
X21042000Y-5904450I-40000J0D01*
G01*
X21042000Y-5904450D02*
G75*
G03*
X21122000Y-5904450I40000J0D01*
G01*
X21122000Y-6666450D02*
G75*
G03*
X21042000Y-6666450I-40000J0D01*
G01*
X21042000Y-6666450D02*
G75*
G03*
X21122000Y-6666450I40000J0D01*
G01*
X21376000Y-5904450D02*
G75*
G03*
X21296000Y-5904450I-40000J0D01*
G01*
X21296000Y-5904450D02*
G75*
G03*
X21376000Y-5904450I40000J0D01*
G01*
X21376000Y-6666450D02*
G75*
G03*
X21296000Y-6666450I-40000J0D01*
G01*
X21296000Y-6666450D02*
G75*
G03*
X21376000Y-6666450I40000J0D01*
G01*
X21630000Y-5904450D02*
G75*
G03*
X21550000Y-5904450I-40000J0D01*
G01*
X21550000Y-5904450D02*
G75*
G03*
X21630000Y-5904450I40000J0D01*
G01*
X21630000Y-6666450D02*
G75*
G03*
X21550000Y-6666450I-40000J0D01*
G01*
X21550000Y-6666450D02*
G75*
G03*
X21630000Y-6666450I40000J0D01*
G01*
X22138000Y-5842000D02*
G75*
G03*
X22058000Y-5842000I-40000J0D01*
G01*
X22058000Y-5842000D02*
G75*
G03*
X22138000Y-5842000I40000J0D01*
G01*
X22138000Y-6092000D02*
G75*
G03*
X22058000Y-6092000I-40000J0D01*
G01*
X22058000Y-6092000D02*
G75*
G03*
X22138000Y-6092000I40000J0D01*
G01*
X10837000Y-5832000D02*
X10837000Y-5932000D01*
X10787000Y-5882000D02*
X10887000Y-5882000D01*
X10837000Y-7356000D02*
X10837000Y-7456000D01*
X10787000Y-7406000D02*
X10887000Y-7406000D01*
X11091000Y-5832000D02*
X11091000Y-5932000D01*
X11041000Y-5882000D02*
X11141000Y-5882000D01*
X11091000Y-7356000D02*
X11091000Y-7456000D01*
X11041000Y-7406000D02*
X11141000Y-7406000D01*
X11345000Y-5832000D02*
X11345000Y-5932000D01*
X11295000Y-5882000D02*
X11395000Y-5882000D01*
X11345000Y-7356000D02*
X11345000Y-7456000D01*
X11295000Y-7406000D02*
X11395000Y-7406000D01*
X11599000Y-5832000D02*
X11599000Y-5932000D01*
X11549000Y-5882000D02*
X11649000Y-5882000D01*
X11599000Y-7356000D02*
X11599000Y-7456000D01*
X11549000Y-7406000D02*
X11649000Y-7406000D01*
X11853000Y-5832000D02*
X11853000Y-5932000D01*
X11803000Y-5882000D02*
X11903000Y-5882000D01*
X11853000Y-7356000D02*
X11853000Y-7456000D01*
X11803000Y-7406000D02*
X11903000Y-7406000D01*
X12107000Y-5832000D02*
X12107000Y-5932000D01*
X12057000Y-5882000D02*
X12157000Y-5882000D01*
X12107000Y-7356000D02*
X12107000Y-7456000D01*
X12057000Y-7406000D02*
X12157000Y-7406000D01*
X12361000Y-5832000D02*
X12361000Y-5932000D01*
X12311000Y-5882000D02*
X12411000Y-5882000D01*
X12361000Y-7356000D02*
X12361000Y-7456000D01*
X12311000Y-7406000D02*
X12411000Y-7406000D01*
X12615000Y-5832000D02*
X12615000Y-5932000D01*
X12565000Y-5882000D02*
X12665000Y-5882000D01*
X12615000Y-7356000D02*
X12615000Y-7456000D01*
X12565000Y-7406000D02*
X12665000Y-7406000D01*
X12869000Y-5832000D02*
X12869000Y-5932000D01*
X12819000Y-5882000D02*
X12919000Y-5882000D01*
X12869000Y-7356000D02*
X12869000Y-7456000D01*
X12819000Y-7406000D02*
X12919000Y-7406000D01*
X13123000Y-5832000D02*
X13123000Y-5932000D01*
X13073000Y-5882000D02*
X13173000Y-5882000D01*
X13123000Y-7356000D02*
X13123000Y-7456000D01*
X13073000Y-7406000D02*
X13173000Y-7406000D01*
X13377000Y-5832000D02*
X13377000Y-5932000D01*
X13327000Y-5882000D02*
X13427000Y-5882000D01*
X13377000Y-7356000D02*
X13377000Y-7456000D01*
X13327000Y-7406000D02*
X13427000Y-7406000D01*
X13631000Y-5832000D02*
X13631000Y-5932000D01*
X13581000Y-5882000D02*
X13681000Y-5882000D01*
X13631000Y-7356000D02*
X13631000Y-7456000D01*
X13581000Y-7406000D02*
X13681000Y-7406000D01*
X13885000Y-5832000D02*
X13885000Y-5932000D01*
X13835000Y-5882000D02*
X13935000Y-5882000D01*
X13885000Y-7356000D02*
X13885000Y-7456000D01*
X13835000Y-7406000D02*
X13935000Y-7406000D01*
X14139000Y-5832000D02*
X14139000Y-5932000D01*
X14089000Y-5882000D02*
X14189000Y-5882000D01*
X14139000Y-7356000D02*
X14139000Y-7456000D01*
X14089000Y-7406000D02*
X14189000Y-7406000D01*
X14393000Y-5832000D02*
X14393000Y-5932000D01*
X14343000Y-5882000D02*
X14443000Y-5882000D01*
X14393000Y-7356000D02*
X14393000Y-7456000D01*
X14343000Y-7406000D02*
X14443000Y-7406000D01*
X22510190Y-5892520D02*
X22510190Y-5992520D01*
X22460190Y-5942520D02*
X22560190Y-5942520D01*
D11*
X10669777Y-8017582D02*
X10669777Y-7817582D01*
X10669777Y-7817582D02*
X10717396Y-7817582D01*
X10717396Y-7817582D02*
X10745967Y-7827105D01*
X10745967Y-7827105D02*
X10765015Y-7846153D01*
X10765015Y-7846153D02*
X10774539Y-7865201D01*
X10774539Y-7865201D02*
X10784063Y-7903296D01*
X10784063Y-7903296D02*
X10784063Y-7931867D01*
X10784063Y-7931867D02*
X10774539Y-7969962D01*
X10774539Y-7969962D02*
X10765015Y-7989010D01*
X10765015Y-7989010D02*
X10745967Y-8008058D01*
X10745967Y-8008058D02*
X10717396Y-8017582D01*
X10717396Y-8017582D02*
X10669777Y-8017582D01*
X10869777Y-8017582D02*
X10869777Y-7884248D01*
X10869777Y-7922343D02*
X10879301Y-7903296D01*
X10879301Y-7903296D02*
X10888824Y-7893772D01*
X10888824Y-7893772D02*
X10907872Y-7884248D01*
X10907872Y-7884248D02*
X10926920Y-7884248D01*
X10993586Y-8017582D02*
X10993586Y-7884248D01*
X10993586Y-7817582D02*
X10984063Y-7827105D01*
X10984063Y-7827105D02*
X10993586Y-7836629D01*
X10993586Y-7836629D02*
X11003110Y-7827105D01*
X11003110Y-7827105D02*
X10993586Y-7817582D01*
X10993586Y-7817582D02*
X10993586Y-7836629D01*
X11117396Y-8017582D02*
X11098348Y-8008058D01*
X11098348Y-8008058D02*
X11088824Y-7989010D01*
X11088824Y-7989010D02*
X11088824Y-7817582D01*
X11222158Y-8017582D02*
X11203110Y-8008058D01*
X11203110Y-8008058D02*
X11193586Y-7989010D01*
X11193586Y-7989010D02*
X11193586Y-7817582D01*
X11450729Y-8017582D02*
X11450729Y-7817582D01*
X11450729Y-7817582D02*
X11517396Y-7960439D01*
X11517396Y-7960439D02*
X11584062Y-7817582D01*
X11584062Y-7817582D02*
X11584062Y-8017582D01*
X11765015Y-8017582D02*
X11765015Y-7912820D01*
X11765015Y-7912820D02*
X11755491Y-7893772D01*
X11755491Y-7893772D02*
X11736443Y-7884248D01*
X11736443Y-7884248D02*
X11698348Y-7884248D01*
X11698348Y-7884248D02*
X11679301Y-7893772D01*
X11765015Y-8008058D02*
X11745967Y-8017582D01*
X11745967Y-8017582D02*
X11698348Y-8017582D01*
X11698348Y-8017582D02*
X11679301Y-8008058D01*
X11679301Y-8008058D02*
X11669777Y-7989010D01*
X11669777Y-7989010D02*
X11669777Y-7969962D01*
X11669777Y-7969962D02*
X11679301Y-7950915D01*
X11679301Y-7950915D02*
X11698348Y-7941391D01*
X11698348Y-7941391D02*
X11745967Y-7941391D01*
X11745967Y-7941391D02*
X11765015Y-7931867D01*
X11860253Y-7884248D02*
X11860253Y-8084248D01*
X11860253Y-7893772D02*
X11879301Y-7884248D01*
X11879301Y-7884248D02*
X11917396Y-7884248D01*
X11917396Y-7884248D02*
X11936443Y-7893772D01*
X11936443Y-7893772D02*
X11945967Y-7903296D01*
X11945967Y-7903296D02*
X11955491Y-7922343D01*
X11955491Y-7922343D02*
X11955491Y-7979486D01*
X11955491Y-7979486D02*
X11945967Y-7998534D01*
X11945967Y-7998534D02*
X11936443Y-8008058D01*
X11936443Y-8008058D02*
X11917396Y-8017582D01*
X11917396Y-8017582D02*
X11879301Y-8017582D01*
X11879301Y-8017582D02*
X11860253Y-8008058D01*
X12041205Y-7998534D02*
X12050729Y-8008058D01*
X12050729Y-8008058D02*
X12041205Y-8017582D01*
X12041205Y-8017582D02*
X12031682Y-8008058D01*
X12031682Y-8008058D02*
X12041205Y-7998534D01*
X12041205Y-7998534D02*
X12041205Y-8017582D01*
X12041205Y-7893772D02*
X12050729Y-7903296D01*
X12050729Y-7903296D02*
X12041205Y-7912820D01*
X12041205Y-7912820D02*
X12031682Y-7903296D01*
X12031682Y-7903296D02*
X12041205Y-7893772D01*
X12041205Y-7893772D02*
X12041205Y-7912820D01*
D10*
X10334000Y-8308598D02*
X10409000Y-8383598D01*
X10409000Y-8308598D02*
X10334000Y-8383598D01*
D11*
X10707872Y-8237582D02*
X10726920Y-8237582D01*
X10726920Y-8237582D02*
X10745967Y-8247105D01*
X10745967Y-8247105D02*
X10755491Y-8256629D01*
X10755491Y-8256629D02*
X10765015Y-8275677D01*
X10765015Y-8275677D02*
X10774539Y-8313772D01*
X10774539Y-8313772D02*
X10774539Y-8361391D01*
X10774539Y-8361391D02*
X10765015Y-8399486D01*
X10765015Y-8399486D02*
X10755491Y-8418534D01*
X10755491Y-8418534D02*
X10745967Y-8428058D01*
X10745967Y-8428058D02*
X10726920Y-8437582D01*
X10726920Y-8437582D02*
X10707872Y-8437582D01*
X10707872Y-8437582D02*
X10688824Y-8428058D01*
X10688824Y-8428058D02*
X10679301Y-8418534D01*
X10679301Y-8418534D02*
X10669777Y-8399486D01*
X10669777Y-8399486D02*
X10660253Y-8361391D01*
X10660253Y-8361391D02*
X10660253Y-8313772D01*
X10660253Y-8313772D02*
X10669777Y-8275677D01*
X10669777Y-8275677D02*
X10679301Y-8256629D01*
X10679301Y-8256629D02*
X10688824Y-8247105D01*
X10688824Y-8247105D02*
X10707872Y-8237582D01*
X10860253Y-8418534D02*
X10869777Y-8428058D01*
X10869777Y-8428058D02*
X10860253Y-8437582D01*
X10860253Y-8437582D02*
X10850729Y-8428058D01*
X10850729Y-8428058D02*
X10860253Y-8418534D01*
X10860253Y-8418534D02*
X10860253Y-8437582D01*
X10936444Y-8237582D02*
X11069777Y-8237582D01*
X11069777Y-8237582D02*
X10984063Y-8437582D01*
X11241205Y-8237582D02*
X11145967Y-8237582D01*
X11145967Y-8237582D02*
X11136444Y-8332820D01*
X11136444Y-8332820D02*
X11145967Y-8323296D01*
X11145967Y-8323296D02*
X11165015Y-8313772D01*
X11165015Y-8313772D02*
X11212634Y-8313772D01*
X11212634Y-8313772D02*
X11231682Y-8323296D01*
X11231682Y-8323296D02*
X11241205Y-8332820D01*
X11241205Y-8332820D02*
X11250729Y-8351867D01*
X11250729Y-8351867D02*
X11250729Y-8399486D01*
X11250729Y-8399486D02*
X11241205Y-8418534D01*
X11241205Y-8418534D02*
X11231682Y-8428058D01*
X11231682Y-8428058D02*
X11212634Y-8437582D01*
X11212634Y-8437582D02*
X11165015Y-8437582D01*
X11165015Y-8437582D02*
X11145967Y-8428058D01*
X11145967Y-8428058D02*
X11136444Y-8418534D01*
X11374539Y-8237582D02*
X11393586Y-8237582D01*
X11393586Y-8237582D02*
X11412634Y-8247105D01*
X11412634Y-8247105D02*
X11422158Y-8256629D01*
X11422158Y-8256629D02*
X11431682Y-8275677D01*
X11431682Y-8275677D02*
X11441205Y-8313772D01*
X11441205Y-8313772D02*
X11441205Y-8361391D01*
X11441205Y-8361391D02*
X11431682Y-8399486D01*
X11431682Y-8399486D02*
X11422158Y-8418534D01*
X11422158Y-8418534D02*
X11412634Y-8428058D01*
X11412634Y-8428058D02*
X11393586Y-8437582D01*
X11393586Y-8437582D02*
X11374539Y-8437582D01*
X11374539Y-8437582D02*
X11355491Y-8428058D01*
X11355491Y-8428058D02*
X11345967Y-8418534D01*
X11345967Y-8418534D02*
X11336443Y-8399486D01*
X11336443Y-8399486D02*
X11326920Y-8361391D01*
X11326920Y-8361391D02*
X11326920Y-8313772D01*
X11326920Y-8313772D02*
X11336443Y-8275677D01*
X11336443Y-8275677D02*
X11345967Y-8256629D01*
X11345967Y-8256629D02*
X11355491Y-8247105D01*
X11355491Y-8247105D02*
X11374539Y-8237582D01*
X11526920Y-8437582D02*
X11526920Y-8304248D01*
X11526920Y-8323296D02*
X11536443Y-8313772D01*
X11536443Y-8313772D02*
X11555491Y-8304248D01*
X11555491Y-8304248D02*
X11584063Y-8304248D01*
X11584063Y-8304248D02*
X11603110Y-8313772D01*
X11603110Y-8313772D02*
X11612634Y-8332820D01*
X11612634Y-8332820D02*
X11612634Y-8437582D01*
X11612634Y-8332820D02*
X11622158Y-8313772D01*
X11622158Y-8313772D02*
X11641205Y-8304248D01*
X11641205Y-8304248D02*
X11669777Y-8304248D01*
X11669777Y-8304248D02*
X11688824Y-8313772D01*
X11688824Y-8313772D02*
X11698348Y-8332820D01*
X11698348Y-8332820D02*
X11698348Y-8437582D01*
X11793586Y-8437582D02*
X11793586Y-8304248D01*
X11793586Y-8323296D02*
X11803110Y-8313772D01*
X11803110Y-8313772D02*
X11822158Y-8304248D01*
X11822158Y-8304248D02*
X11850729Y-8304248D01*
X11850729Y-8304248D02*
X11869777Y-8313772D01*
X11869777Y-8313772D02*
X11879301Y-8332820D01*
X11879301Y-8332820D02*
X11879301Y-8437582D01*
X11879301Y-8332820D02*
X11888824Y-8313772D01*
X11888824Y-8313772D02*
X11907872Y-8304248D01*
X11907872Y-8304248D02*
X11936443Y-8304248D01*
X11936443Y-8304248D02*
X11955491Y-8313772D01*
X11955491Y-8313772D02*
X11965015Y-8332820D01*
X11965015Y-8332820D02*
X11965015Y-8437582D01*
X12355491Y-8228058D02*
X12184063Y-8485201D01*
X12612634Y-8237582D02*
X12631682Y-8237582D01*
X12631682Y-8237582D02*
X12650729Y-8247105D01*
X12650729Y-8247105D02*
X12660253Y-8256629D01*
X12660253Y-8256629D02*
X12669777Y-8275677D01*
X12669777Y-8275677D02*
X12679301Y-8313772D01*
X12679301Y-8313772D02*
X12679301Y-8361391D01*
X12679301Y-8361391D02*
X12669777Y-8399486D01*
X12669777Y-8399486D02*
X12660253Y-8418534D01*
X12660253Y-8418534D02*
X12650729Y-8428058D01*
X12650729Y-8428058D02*
X12631682Y-8437582D01*
X12631682Y-8437582D02*
X12612634Y-8437582D01*
X12612634Y-8437582D02*
X12593586Y-8428058D01*
X12593586Y-8428058D02*
X12584063Y-8418534D01*
X12584063Y-8418534D02*
X12574539Y-8399486D01*
X12574539Y-8399486D02*
X12565015Y-8361391D01*
X12565015Y-8361391D02*
X12565015Y-8313772D01*
X12565015Y-8313772D02*
X12574539Y-8275677D01*
X12574539Y-8275677D02*
X12584063Y-8256629D01*
X12584063Y-8256629D02*
X12593586Y-8247105D01*
X12593586Y-8247105D02*
X12612634Y-8237582D01*
X12765015Y-8418534D02*
X12774539Y-8428058D01*
X12774539Y-8428058D02*
X12765015Y-8437582D01*
X12765015Y-8437582D02*
X12755491Y-8428058D01*
X12755491Y-8428058D02*
X12765015Y-8418534D01*
X12765015Y-8418534D02*
X12765015Y-8437582D01*
X12898348Y-8237582D02*
X12917396Y-8237582D01*
X12917396Y-8237582D02*
X12936444Y-8247105D01*
X12936444Y-8247105D02*
X12945967Y-8256629D01*
X12945967Y-8256629D02*
X12955491Y-8275677D01*
X12955491Y-8275677D02*
X12965015Y-8313772D01*
X12965015Y-8313772D02*
X12965015Y-8361391D01*
X12965015Y-8361391D02*
X12955491Y-8399486D01*
X12955491Y-8399486D02*
X12945967Y-8418534D01*
X12945967Y-8418534D02*
X12936444Y-8428058D01*
X12936444Y-8428058D02*
X12917396Y-8437582D01*
X12917396Y-8437582D02*
X12898348Y-8437582D01*
X12898348Y-8437582D02*
X12879301Y-8428058D01*
X12879301Y-8428058D02*
X12869777Y-8418534D01*
X12869777Y-8418534D02*
X12860253Y-8399486D01*
X12860253Y-8399486D02*
X12850729Y-8361391D01*
X12850729Y-8361391D02*
X12850729Y-8313772D01*
X12850729Y-8313772D02*
X12860253Y-8275677D01*
X12860253Y-8275677D02*
X12869777Y-8256629D01*
X12869777Y-8256629D02*
X12879301Y-8247105D01*
X12879301Y-8247105D02*
X12898348Y-8237582D01*
X13041206Y-8256629D02*
X13050729Y-8247105D01*
X13050729Y-8247105D02*
X13069777Y-8237582D01*
X13069777Y-8237582D02*
X13117396Y-8237582D01*
X13117396Y-8237582D02*
X13136444Y-8247105D01*
X13136444Y-8247105D02*
X13145967Y-8256629D01*
X13145967Y-8256629D02*
X13155491Y-8275677D01*
X13155491Y-8275677D02*
X13155491Y-8294724D01*
X13155491Y-8294724D02*
X13145967Y-8323296D01*
X13145967Y-8323296D02*
X13031682Y-8437582D01*
X13031682Y-8437582D02*
X13155491Y-8437582D01*
X13250729Y-8437582D02*
X13288825Y-8437582D01*
X13288825Y-8437582D02*
X13307872Y-8428058D01*
X13307872Y-8428058D02*
X13317396Y-8418534D01*
X13317396Y-8418534D02*
X13336444Y-8389963D01*
X13336444Y-8389963D02*
X13345967Y-8351867D01*
X13345967Y-8351867D02*
X13345967Y-8275677D01*
X13345967Y-8275677D02*
X13336444Y-8256629D01*
X13336444Y-8256629D02*
X13326920Y-8247105D01*
X13326920Y-8247105D02*
X13307872Y-8237582D01*
X13307872Y-8237582D02*
X13269777Y-8237582D01*
X13269777Y-8237582D02*
X13250729Y-8247105D01*
X13250729Y-8247105D02*
X13241206Y-8256629D01*
X13241206Y-8256629D02*
X13231682Y-8275677D01*
X13231682Y-8275677D02*
X13231682Y-8323296D01*
X13231682Y-8323296D02*
X13241206Y-8342343D01*
X13241206Y-8342343D02*
X13250729Y-8351867D01*
X13250729Y-8351867D02*
X13269777Y-8361391D01*
X13269777Y-8361391D02*
X13307872Y-8361391D01*
X13307872Y-8361391D02*
X13326920Y-8351867D01*
X13326920Y-8351867D02*
X13336444Y-8342343D01*
X13336444Y-8342343D02*
X13345967Y-8323296D01*
X13526920Y-8237582D02*
X13431682Y-8237582D01*
X13431682Y-8237582D02*
X13422158Y-8332820D01*
X13422158Y-8332820D02*
X13431682Y-8323296D01*
X13431682Y-8323296D02*
X13450729Y-8313772D01*
X13450729Y-8313772D02*
X13498348Y-8313772D01*
X13498348Y-8313772D02*
X13517396Y-8323296D01*
X13517396Y-8323296D02*
X13526920Y-8332820D01*
X13526920Y-8332820D02*
X13536444Y-8351867D01*
X13536444Y-8351867D02*
X13536444Y-8399486D01*
X13536444Y-8399486D02*
X13526920Y-8418534D01*
X13526920Y-8418534D02*
X13517396Y-8428058D01*
X13517396Y-8428058D02*
X13498348Y-8437582D01*
X13498348Y-8437582D02*
X13450729Y-8437582D01*
X13450729Y-8437582D02*
X13431682Y-8428058D01*
X13431682Y-8428058D02*
X13422158Y-8418534D01*
X13612634Y-8237582D02*
X13612634Y-8275677D01*
X13688825Y-8237582D02*
X13688825Y-8275677D01*
X13984063Y-8513772D02*
X13974539Y-8504248D01*
X13974539Y-8504248D02*
X13955491Y-8475677D01*
X13955491Y-8475677D02*
X13945968Y-8456629D01*
X13945968Y-8456629D02*
X13936444Y-8428058D01*
X13936444Y-8428058D02*
X13926920Y-8380439D01*
X13926920Y-8380439D02*
X13926920Y-8342343D01*
X13926920Y-8342343D02*
X13936444Y-8294724D01*
X13936444Y-8294724D02*
X13945968Y-8266153D01*
X13945968Y-8266153D02*
X13955491Y-8247105D01*
X13955491Y-8247105D02*
X13974539Y-8218534D01*
X13974539Y-8218534D02*
X13984063Y-8209010D01*
X14041206Y-8237582D02*
X14165015Y-8237582D01*
X14165015Y-8237582D02*
X14098348Y-8313772D01*
X14098348Y-8313772D02*
X14126920Y-8313772D01*
X14126920Y-8313772D02*
X14145968Y-8323296D01*
X14145968Y-8323296D02*
X14155491Y-8332820D01*
X14155491Y-8332820D02*
X14165015Y-8351867D01*
X14165015Y-8351867D02*
X14165015Y-8399486D01*
X14165015Y-8399486D02*
X14155491Y-8418534D01*
X14155491Y-8418534D02*
X14145968Y-8428058D01*
X14145968Y-8428058D02*
X14126920Y-8437582D01*
X14126920Y-8437582D02*
X14069777Y-8437582D01*
X14069777Y-8437582D02*
X14050729Y-8428058D01*
X14050729Y-8428058D02*
X14041206Y-8418534D01*
X14241206Y-8256629D02*
X14250729Y-8247105D01*
X14250729Y-8247105D02*
X14269777Y-8237582D01*
X14269777Y-8237582D02*
X14317396Y-8237582D01*
X14317396Y-8237582D02*
X14336444Y-8247105D01*
X14336444Y-8247105D02*
X14345968Y-8256629D01*
X14345968Y-8256629D02*
X14355491Y-8275677D01*
X14355491Y-8275677D02*
X14355491Y-8294724D01*
X14355491Y-8294724D02*
X14345968Y-8323296D01*
X14345968Y-8323296D02*
X14231682Y-8437582D01*
X14231682Y-8437582D02*
X14355491Y-8437582D01*
X14593587Y-8437582D02*
X14593587Y-8237582D01*
X14679301Y-8437582D02*
X14679301Y-8332820D01*
X14679301Y-8332820D02*
X14669777Y-8313772D01*
X14669777Y-8313772D02*
X14650730Y-8304248D01*
X14650730Y-8304248D02*
X14622158Y-8304248D01*
X14622158Y-8304248D02*
X14603110Y-8313772D01*
X14603110Y-8313772D02*
X14593587Y-8323296D01*
X14803110Y-8437582D02*
X14784063Y-8428058D01*
X14784063Y-8428058D02*
X14774539Y-8418534D01*
X14774539Y-8418534D02*
X14765015Y-8399486D01*
X14765015Y-8399486D02*
X14765015Y-8342343D01*
X14765015Y-8342343D02*
X14774539Y-8323296D01*
X14774539Y-8323296D02*
X14784063Y-8313772D01*
X14784063Y-8313772D02*
X14803110Y-8304248D01*
X14803110Y-8304248D02*
X14831682Y-8304248D01*
X14831682Y-8304248D02*
X14850730Y-8313772D01*
X14850730Y-8313772D02*
X14860253Y-8323296D01*
X14860253Y-8323296D02*
X14869777Y-8342343D01*
X14869777Y-8342343D02*
X14869777Y-8399486D01*
X14869777Y-8399486D02*
X14860253Y-8418534D01*
X14860253Y-8418534D02*
X14850730Y-8428058D01*
X14850730Y-8428058D02*
X14831682Y-8437582D01*
X14831682Y-8437582D02*
X14803110Y-8437582D01*
X14984063Y-8437582D02*
X14965015Y-8428058D01*
X14965015Y-8428058D02*
X14955491Y-8409010D01*
X14955491Y-8409010D02*
X14955491Y-8237582D01*
X15136444Y-8428058D02*
X15117396Y-8437582D01*
X15117396Y-8437582D02*
X15079301Y-8437582D01*
X15079301Y-8437582D02*
X15060253Y-8428058D01*
X15060253Y-8428058D02*
X15050730Y-8409010D01*
X15050730Y-8409010D02*
X15050730Y-8332820D01*
X15050730Y-8332820D02*
X15060253Y-8313772D01*
X15060253Y-8313772D02*
X15079301Y-8304248D01*
X15079301Y-8304248D02*
X15117396Y-8304248D01*
X15117396Y-8304248D02*
X15136444Y-8313772D01*
X15136444Y-8313772D02*
X15145968Y-8332820D01*
X15145968Y-8332820D02*
X15145968Y-8351867D01*
X15145968Y-8351867D02*
X15050730Y-8370915D01*
X15222158Y-8428058D02*
X15241206Y-8437582D01*
X15241206Y-8437582D02*
X15279301Y-8437582D01*
X15279301Y-8437582D02*
X15298349Y-8428058D01*
X15298349Y-8428058D02*
X15307872Y-8409010D01*
X15307872Y-8409010D02*
X15307872Y-8399486D01*
X15307872Y-8399486D02*
X15298349Y-8380439D01*
X15298349Y-8380439D02*
X15279301Y-8370915D01*
X15279301Y-8370915D02*
X15250730Y-8370915D01*
X15250730Y-8370915D02*
X15231682Y-8361391D01*
X15231682Y-8361391D02*
X15222158Y-8342343D01*
X15222158Y-8342343D02*
X15222158Y-8332820D01*
X15222158Y-8332820D02*
X15231682Y-8313772D01*
X15231682Y-8313772D02*
X15250730Y-8304248D01*
X15250730Y-8304248D02*
X15279301Y-8304248D01*
X15279301Y-8304248D02*
X15298349Y-8313772D01*
X15374539Y-8513772D02*
X15384063Y-8504248D01*
X15384063Y-8504248D02*
X15403111Y-8475677D01*
X15403111Y-8475677D02*
X15412634Y-8456629D01*
X15412634Y-8456629D02*
X15422158Y-8428058D01*
X15422158Y-8428058D02*
X15431682Y-8380439D01*
X15431682Y-8380439D02*
X15431682Y-8342343D01*
X15431682Y-8342343D02*
X15422158Y-8294724D01*
X15422158Y-8294724D02*
X15412634Y-8266153D01*
X15412634Y-8266153D02*
X15403111Y-8247105D01*
X15403111Y-8247105D02*
X15384063Y-8218534D01*
X15384063Y-8218534D02*
X15374539Y-8209010D01*
D10*
X10409000Y-8610098D02*
G75*
G03*
X10329000Y-8610098I-40000J0D01*
G01*
X10329000Y-8610098D02*
G75*
G03*
X10409000Y-8610098I40000J0D01*
G01*
D11*
X10707872Y-8501582D02*
X10726920Y-8501582D01*
X10726920Y-8501582D02*
X10745967Y-8511105D01*
X10745967Y-8511105D02*
X10755491Y-8520629D01*
X10755491Y-8520629D02*
X10765015Y-8539677D01*
X10765015Y-8539677D02*
X10774539Y-8577772D01*
X10774539Y-8577772D02*
X10774539Y-8625391D01*
X10774539Y-8625391D02*
X10765015Y-8663486D01*
X10765015Y-8663486D02*
X10755491Y-8682534D01*
X10755491Y-8682534D02*
X10745967Y-8692058D01*
X10745967Y-8692058D02*
X10726920Y-8701582D01*
X10726920Y-8701582D02*
X10707872Y-8701582D01*
X10707872Y-8701582D02*
X10688824Y-8692058D01*
X10688824Y-8692058D02*
X10679301Y-8682534D01*
X10679301Y-8682534D02*
X10669777Y-8663486D01*
X10669777Y-8663486D02*
X10660253Y-8625391D01*
X10660253Y-8625391D02*
X10660253Y-8577772D01*
X10660253Y-8577772D02*
X10669777Y-8539677D01*
X10669777Y-8539677D02*
X10679301Y-8520629D01*
X10679301Y-8520629D02*
X10688824Y-8511105D01*
X10688824Y-8511105D02*
X10707872Y-8501582D01*
X10860253Y-8682534D02*
X10869777Y-8692058D01*
X10869777Y-8692058D02*
X10860253Y-8701582D01*
X10860253Y-8701582D02*
X10850729Y-8692058D01*
X10850729Y-8692058D02*
X10860253Y-8682534D01*
X10860253Y-8682534D02*
X10860253Y-8701582D01*
X10984063Y-8587296D02*
X10965015Y-8577772D01*
X10965015Y-8577772D02*
X10955491Y-8568248D01*
X10955491Y-8568248D02*
X10945967Y-8549201D01*
X10945967Y-8549201D02*
X10945967Y-8539677D01*
X10945967Y-8539677D02*
X10955491Y-8520629D01*
X10955491Y-8520629D02*
X10965015Y-8511105D01*
X10965015Y-8511105D02*
X10984063Y-8501582D01*
X10984063Y-8501582D02*
X11022158Y-8501582D01*
X11022158Y-8501582D02*
X11041205Y-8511105D01*
X11041205Y-8511105D02*
X11050729Y-8520629D01*
X11050729Y-8520629D02*
X11060253Y-8539677D01*
X11060253Y-8539677D02*
X11060253Y-8549201D01*
X11060253Y-8549201D02*
X11050729Y-8568248D01*
X11050729Y-8568248D02*
X11041205Y-8577772D01*
X11041205Y-8577772D02*
X11022158Y-8587296D01*
X11022158Y-8587296D02*
X10984063Y-8587296D01*
X10984063Y-8587296D02*
X10965015Y-8596820D01*
X10965015Y-8596820D02*
X10955491Y-8606344D01*
X10955491Y-8606344D02*
X10945967Y-8625391D01*
X10945967Y-8625391D02*
X10945967Y-8663486D01*
X10945967Y-8663486D02*
X10955491Y-8682534D01*
X10955491Y-8682534D02*
X10965015Y-8692058D01*
X10965015Y-8692058D02*
X10984063Y-8701582D01*
X10984063Y-8701582D02*
X11022158Y-8701582D01*
X11022158Y-8701582D02*
X11041205Y-8692058D01*
X11041205Y-8692058D02*
X11050729Y-8682534D01*
X11050729Y-8682534D02*
X11060253Y-8663486D01*
X11060253Y-8663486D02*
X11060253Y-8625391D01*
X11060253Y-8625391D02*
X11050729Y-8606344D01*
X11050729Y-8606344D02*
X11041205Y-8596820D01*
X11041205Y-8596820D02*
X11022158Y-8587296D01*
X11184063Y-8501582D02*
X11203110Y-8501582D01*
X11203110Y-8501582D02*
X11222158Y-8511105D01*
X11222158Y-8511105D02*
X11231682Y-8520629D01*
X11231682Y-8520629D02*
X11241205Y-8539677D01*
X11241205Y-8539677D02*
X11250729Y-8577772D01*
X11250729Y-8577772D02*
X11250729Y-8625391D01*
X11250729Y-8625391D02*
X11241205Y-8663486D01*
X11241205Y-8663486D02*
X11231682Y-8682534D01*
X11231682Y-8682534D02*
X11222158Y-8692058D01*
X11222158Y-8692058D02*
X11203110Y-8701582D01*
X11203110Y-8701582D02*
X11184063Y-8701582D01*
X11184063Y-8701582D02*
X11165015Y-8692058D01*
X11165015Y-8692058D02*
X11155491Y-8682534D01*
X11155491Y-8682534D02*
X11145967Y-8663486D01*
X11145967Y-8663486D02*
X11136444Y-8625391D01*
X11136444Y-8625391D02*
X11136444Y-8577772D01*
X11136444Y-8577772D02*
X11145967Y-8539677D01*
X11145967Y-8539677D02*
X11155491Y-8520629D01*
X11155491Y-8520629D02*
X11165015Y-8511105D01*
X11165015Y-8511105D02*
X11184063Y-8501582D01*
X11374539Y-8501582D02*
X11393586Y-8501582D01*
X11393586Y-8501582D02*
X11412634Y-8511105D01*
X11412634Y-8511105D02*
X11422158Y-8520629D01*
X11422158Y-8520629D02*
X11431682Y-8539677D01*
X11431682Y-8539677D02*
X11441205Y-8577772D01*
X11441205Y-8577772D02*
X11441205Y-8625391D01*
X11441205Y-8625391D02*
X11431682Y-8663486D01*
X11431682Y-8663486D02*
X11422158Y-8682534D01*
X11422158Y-8682534D02*
X11412634Y-8692058D01*
X11412634Y-8692058D02*
X11393586Y-8701582D01*
X11393586Y-8701582D02*
X11374539Y-8701582D01*
X11374539Y-8701582D02*
X11355491Y-8692058D01*
X11355491Y-8692058D02*
X11345967Y-8682534D01*
X11345967Y-8682534D02*
X11336443Y-8663486D01*
X11336443Y-8663486D02*
X11326920Y-8625391D01*
X11326920Y-8625391D02*
X11326920Y-8577772D01*
X11326920Y-8577772D02*
X11336443Y-8539677D01*
X11336443Y-8539677D02*
X11345967Y-8520629D01*
X11345967Y-8520629D02*
X11355491Y-8511105D01*
X11355491Y-8511105D02*
X11374539Y-8501582D01*
X11526920Y-8701582D02*
X11526920Y-8568248D01*
X11526920Y-8587296D02*
X11536443Y-8577772D01*
X11536443Y-8577772D02*
X11555491Y-8568248D01*
X11555491Y-8568248D02*
X11584063Y-8568248D01*
X11584063Y-8568248D02*
X11603110Y-8577772D01*
X11603110Y-8577772D02*
X11612634Y-8596820D01*
X11612634Y-8596820D02*
X11612634Y-8701582D01*
X11612634Y-8596820D02*
X11622158Y-8577772D01*
X11622158Y-8577772D02*
X11641205Y-8568248D01*
X11641205Y-8568248D02*
X11669777Y-8568248D01*
X11669777Y-8568248D02*
X11688824Y-8577772D01*
X11688824Y-8577772D02*
X11698348Y-8596820D01*
X11698348Y-8596820D02*
X11698348Y-8701582D01*
X11793586Y-8701582D02*
X11793586Y-8568248D01*
X11793586Y-8587296D02*
X11803110Y-8577772D01*
X11803110Y-8577772D02*
X11822158Y-8568248D01*
X11822158Y-8568248D02*
X11850729Y-8568248D01*
X11850729Y-8568248D02*
X11869777Y-8577772D01*
X11869777Y-8577772D02*
X11879301Y-8596820D01*
X11879301Y-8596820D02*
X11879301Y-8701582D01*
X11879301Y-8596820D02*
X11888824Y-8577772D01*
X11888824Y-8577772D02*
X11907872Y-8568248D01*
X11907872Y-8568248D02*
X11936443Y-8568248D01*
X11936443Y-8568248D02*
X11955491Y-8577772D01*
X11955491Y-8577772D02*
X11965015Y-8596820D01*
X11965015Y-8596820D02*
X11965015Y-8701582D01*
X12355491Y-8492058D02*
X12184063Y-8749201D01*
X12612634Y-8501582D02*
X12631682Y-8501582D01*
X12631682Y-8501582D02*
X12650729Y-8511105D01*
X12650729Y-8511105D02*
X12660253Y-8520629D01*
X12660253Y-8520629D02*
X12669777Y-8539677D01*
X12669777Y-8539677D02*
X12679301Y-8577772D01*
X12679301Y-8577772D02*
X12679301Y-8625391D01*
X12679301Y-8625391D02*
X12669777Y-8663486D01*
X12669777Y-8663486D02*
X12660253Y-8682534D01*
X12660253Y-8682534D02*
X12650729Y-8692058D01*
X12650729Y-8692058D02*
X12631682Y-8701582D01*
X12631682Y-8701582D02*
X12612634Y-8701582D01*
X12612634Y-8701582D02*
X12593586Y-8692058D01*
X12593586Y-8692058D02*
X12584063Y-8682534D01*
X12584063Y-8682534D02*
X12574539Y-8663486D01*
X12574539Y-8663486D02*
X12565015Y-8625391D01*
X12565015Y-8625391D02*
X12565015Y-8577772D01*
X12565015Y-8577772D02*
X12574539Y-8539677D01*
X12574539Y-8539677D02*
X12584063Y-8520629D01*
X12584063Y-8520629D02*
X12593586Y-8511105D01*
X12593586Y-8511105D02*
X12612634Y-8501582D01*
X12765015Y-8682534D02*
X12774539Y-8692058D01*
X12774539Y-8692058D02*
X12765015Y-8701582D01*
X12765015Y-8701582D02*
X12755491Y-8692058D01*
X12755491Y-8692058D02*
X12765015Y-8682534D01*
X12765015Y-8682534D02*
X12765015Y-8701582D01*
X12898348Y-8501582D02*
X12917396Y-8501582D01*
X12917396Y-8501582D02*
X12936444Y-8511105D01*
X12936444Y-8511105D02*
X12945967Y-8520629D01*
X12945967Y-8520629D02*
X12955491Y-8539677D01*
X12955491Y-8539677D02*
X12965015Y-8577772D01*
X12965015Y-8577772D02*
X12965015Y-8625391D01*
X12965015Y-8625391D02*
X12955491Y-8663486D01*
X12955491Y-8663486D02*
X12945967Y-8682534D01*
X12945967Y-8682534D02*
X12936444Y-8692058D01*
X12936444Y-8692058D02*
X12917396Y-8701582D01*
X12917396Y-8701582D02*
X12898348Y-8701582D01*
X12898348Y-8701582D02*
X12879301Y-8692058D01*
X12879301Y-8692058D02*
X12869777Y-8682534D01*
X12869777Y-8682534D02*
X12860253Y-8663486D01*
X12860253Y-8663486D02*
X12850729Y-8625391D01*
X12850729Y-8625391D02*
X12850729Y-8577772D01*
X12850729Y-8577772D02*
X12860253Y-8539677D01*
X12860253Y-8539677D02*
X12869777Y-8520629D01*
X12869777Y-8520629D02*
X12879301Y-8511105D01*
X12879301Y-8511105D02*
X12898348Y-8501582D01*
X13031682Y-8501582D02*
X13155491Y-8501582D01*
X13155491Y-8501582D02*
X13088825Y-8577772D01*
X13088825Y-8577772D02*
X13117396Y-8577772D01*
X13117396Y-8577772D02*
X13136444Y-8587296D01*
X13136444Y-8587296D02*
X13145967Y-8596820D01*
X13145967Y-8596820D02*
X13155491Y-8615867D01*
X13155491Y-8615867D02*
X13155491Y-8663486D01*
X13155491Y-8663486D02*
X13145967Y-8682534D01*
X13145967Y-8682534D02*
X13136444Y-8692058D01*
X13136444Y-8692058D02*
X13117396Y-8701582D01*
X13117396Y-8701582D02*
X13060253Y-8701582D01*
X13060253Y-8701582D02*
X13041206Y-8692058D01*
X13041206Y-8692058D02*
X13031682Y-8682534D01*
X13345967Y-8701582D02*
X13231682Y-8701582D01*
X13288825Y-8701582D02*
X13288825Y-8501582D01*
X13288825Y-8501582D02*
X13269777Y-8530153D01*
X13269777Y-8530153D02*
X13250729Y-8549201D01*
X13250729Y-8549201D02*
X13231682Y-8558724D01*
X13526920Y-8501582D02*
X13431682Y-8501582D01*
X13431682Y-8501582D02*
X13422158Y-8596820D01*
X13422158Y-8596820D02*
X13431682Y-8587296D01*
X13431682Y-8587296D02*
X13450729Y-8577772D01*
X13450729Y-8577772D02*
X13498348Y-8577772D01*
X13498348Y-8577772D02*
X13517396Y-8587296D01*
X13517396Y-8587296D02*
X13526920Y-8596820D01*
X13526920Y-8596820D02*
X13536444Y-8615867D01*
X13536444Y-8615867D02*
X13536444Y-8663486D01*
X13536444Y-8663486D02*
X13526920Y-8682534D01*
X13526920Y-8682534D02*
X13517396Y-8692058D01*
X13517396Y-8692058D02*
X13498348Y-8701582D01*
X13498348Y-8701582D02*
X13450729Y-8701582D01*
X13450729Y-8701582D02*
X13431682Y-8692058D01*
X13431682Y-8692058D02*
X13422158Y-8682534D01*
X13612634Y-8501582D02*
X13612634Y-8539677D01*
X13688825Y-8501582D02*
X13688825Y-8539677D01*
X13984063Y-8777772D02*
X13974539Y-8768248D01*
X13974539Y-8768248D02*
X13955491Y-8739677D01*
X13955491Y-8739677D02*
X13945968Y-8720629D01*
X13945968Y-8720629D02*
X13936444Y-8692058D01*
X13936444Y-8692058D02*
X13926920Y-8644439D01*
X13926920Y-8644439D02*
X13926920Y-8606344D01*
X13926920Y-8606344D02*
X13936444Y-8558724D01*
X13936444Y-8558724D02*
X13945968Y-8530153D01*
X13945968Y-8530153D02*
X13955491Y-8511105D01*
X13955491Y-8511105D02*
X13974539Y-8482534D01*
X13974539Y-8482534D02*
X13984063Y-8473010D01*
X14155491Y-8501582D02*
X14060253Y-8501582D01*
X14060253Y-8501582D02*
X14050729Y-8596820D01*
X14050729Y-8596820D02*
X14060253Y-8587296D01*
X14060253Y-8587296D02*
X14079301Y-8577772D01*
X14079301Y-8577772D02*
X14126920Y-8577772D01*
X14126920Y-8577772D02*
X14145968Y-8587296D01*
X14145968Y-8587296D02*
X14155491Y-8596820D01*
X14155491Y-8596820D02*
X14165015Y-8615867D01*
X14165015Y-8615867D02*
X14165015Y-8663486D01*
X14165015Y-8663486D02*
X14155491Y-8682534D01*
X14155491Y-8682534D02*
X14145968Y-8692058D01*
X14145968Y-8692058D02*
X14126920Y-8701582D01*
X14126920Y-8701582D02*
X14079301Y-8701582D01*
X14079301Y-8701582D02*
X14060253Y-8692058D01*
X14060253Y-8692058D02*
X14050729Y-8682534D01*
X14288825Y-8501582D02*
X14307872Y-8501582D01*
X14307872Y-8501582D02*
X14326920Y-8511105D01*
X14326920Y-8511105D02*
X14336444Y-8520629D01*
X14336444Y-8520629D02*
X14345968Y-8539677D01*
X14345968Y-8539677D02*
X14355491Y-8577772D01*
X14355491Y-8577772D02*
X14355491Y-8625391D01*
X14355491Y-8625391D02*
X14345968Y-8663486D01*
X14345968Y-8663486D02*
X14336444Y-8682534D01*
X14336444Y-8682534D02*
X14326920Y-8692058D01*
X14326920Y-8692058D02*
X14307872Y-8701582D01*
X14307872Y-8701582D02*
X14288825Y-8701582D01*
X14288825Y-8701582D02*
X14269777Y-8692058D01*
X14269777Y-8692058D02*
X14260253Y-8682534D01*
X14260253Y-8682534D02*
X14250729Y-8663486D01*
X14250729Y-8663486D02*
X14241206Y-8625391D01*
X14241206Y-8625391D02*
X14241206Y-8577772D01*
X14241206Y-8577772D02*
X14250729Y-8539677D01*
X14250729Y-8539677D02*
X14260253Y-8520629D01*
X14260253Y-8520629D02*
X14269777Y-8511105D01*
X14269777Y-8511105D02*
X14288825Y-8501582D01*
X14593587Y-8701582D02*
X14593587Y-8501582D01*
X14679301Y-8701582D02*
X14679301Y-8596820D01*
X14679301Y-8596820D02*
X14669777Y-8577772D01*
X14669777Y-8577772D02*
X14650730Y-8568248D01*
X14650730Y-8568248D02*
X14622158Y-8568248D01*
X14622158Y-8568248D02*
X14603110Y-8577772D01*
X14603110Y-8577772D02*
X14593587Y-8587296D01*
X14803110Y-8701582D02*
X14784063Y-8692058D01*
X14784063Y-8692058D02*
X14774539Y-8682534D01*
X14774539Y-8682534D02*
X14765015Y-8663486D01*
X14765015Y-8663486D02*
X14765015Y-8606344D01*
X14765015Y-8606344D02*
X14774539Y-8587296D01*
X14774539Y-8587296D02*
X14784063Y-8577772D01*
X14784063Y-8577772D02*
X14803110Y-8568248D01*
X14803110Y-8568248D02*
X14831682Y-8568248D01*
X14831682Y-8568248D02*
X14850730Y-8577772D01*
X14850730Y-8577772D02*
X14860253Y-8587296D01*
X14860253Y-8587296D02*
X14869777Y-8606344D01*
X14869777Y-8606344D02*
X14869777Y-8663486D01*
X14869777Y-8663486D02*
X14860253Y-8682534D01*
X14860253Y-8682534D02*
X14850730Y-8692058D01*
X14850730Y-8692058D02*
X14831682Y-8701582D01*
X14831682Y-8701582D02*
X14803110Y-8701582D01*
X14984063Y-8701582D02*
X14965015Y-8692058D01*
X14965015Y-8692058D02*
X14955491Y-8673010D01*
X14955491Y-8673010D02*
X14955491Y-8501582D01*
X15136444Y-8692058D02*
X15117396Y-8701582D01*
X15117396Y-8701582D02*
X15079301Y-8701582D01*
X15079301Y-8701582D02*
X15060253Y-8692058D01*
X15060253Y-8692058D02*
X15050730Y-8673010D01*
X15050730Y-8673010D02*
X15050730Y-8596820D01*
X15050730Y-8596820D02*
X15060253Y-8577772D01*
X15060253Y-8577772D02*
X15079301Y-8568248D01*
X15079301Y-8568248D02*
X15117396Y-8568248D01*
X15117396Y-8568248D02*
X15136444Y-8577772D01*
X15136444Y-8577772D02*
X15145968Y-8596820D01*
X15145968Y-8596820D02*
X15145968Y-8615867D01*
X15145968Y-8615867D02*
X15050730Y-8634915D01*
X15222158Y-8692058D02*
X15241206Y-8701582D01*
X15241206Y-8701582D02*
X15279301Y-8701582D01*
X15279301Y-8701582D02*
X15298349Y-8692058D01*
X15298349Y-8692058D02*
X15307872Y-8673010D01*
X15307872Y-8673010D02*
X15307872Y-8663486D01*
X15307872Y-8663486D02*
X15298349Y-8644439D01*
X15298349Y-8644439D02*
X15279301Y-8634915D01*
X15279301Y-8634915D02*
X15250730Y-8634915D01*
X15250730Y-8634915D02*
X15231682Y-8625391D01*
X15231682Y-8625391D02*
X15222158Y-8606344D01*
X15222158Y-8606344D02*
X15222158Y-8596820D01*
X15222158Y-8596820D02*
X15231682Y-8577772D01*
X15231682Y-8577772D02*
X15250730Y-8568248D01*
X15250730Y-8568248D02*
X15279301Y-8568248D01*
X15279301Y-8568248D02*
X15298349Y-8577772D01*
X15374539Y-8777772D02*
X15384063Y-8768248D01*
X15384063Y-8768248D02*
X15403111Y-8739677D01*
X15403111Y-8739677D02*
X15412634Y-8720629D01*
X15412634Y-8720629D02*
X15422158Y-8692058D01*
X15422158Y-8692058D02*
X15431682Y-8644439D01*
X15431682Y-8644439D02*
X15431682Y-8606344D01*
X15431682Y-8606344D02*
X15422158Y-8558724D01*
X15422158Y-8558724D02*
X15412634Y-8530153D01*
X15412634Y-8530153D02*
X15403111Y-8511105D01*
X15403111Y-8511105D02*
X15384063Y-8482534D01*
X15384063Y-8482534D02*
X15374539Y-8473010D01*
D10*
X10359000Y-8824098D02*
X10359000Y-8924098D01*
X10309000Y-8874098D02*
X10409000Y-8874098D01*
D11*
X10774539Y-8965582D02*
X10660253Y-8965582D01*
X10717396Y-8965582D02*
X10717396Y-8765582D01*
X10717396Y-8765582D02*
X10698348Y-8794153D01*
X10698348Y-8794153D02*
X10679301Y-8813201D01*
X10679301Y-8813201D02*
X10660253Y-8822724D01*
X10860253Y-8946534D02*
X10869777Y-8956058D01*
X10869777Y-8956058D02*
X10860253Y-8965582D01*
X10860253Y-8965582D02*
X10850729Y-8956058D01*
X10850729Y-8956058D02*
X10860253Y-8946534D01*
X10860253Y-8946534D02*
X10860253Y-8965582D01*
X10993586Y-8765582D02*
X11012634Y-8765582D01*
X11012634Y-8765582D02*
X11031682Y-8775105D01*
X11031682Y-8775105D02*
X11041205Y-8784629D01*
X11041205Y-8784629D02*
X11050729Y-8803677D01*
X11050729Y-8803677D02*
X11060253Y-8841772D01*
X11060253Y-8841772D02*
X11060253Y-8889391D01*
X11060253Y-8889391D02*
X11050729Y-8927486D01*
X11050729Y-8927486D02*
X11041205Y-8946534D01*
X11041205Y-8946534D02*
X11031682Y-8956058D01*
X11031682Y-8956058D02*
X11012634Y-8965582D01*
X11012634Y-8965582D02*
X10993586Y-8965582D01*
X10993586Y-8965582D02*
X10974539Y-8956058D01*
X10974539Y-8956058D02*
X10965015Y-8946534D01*
X10965015Y-8946534D02*
X10955491Y-8927486D01*
X10955491Y-8927486D02*
X10945967Y-8889391D01*
X10945967Y-8889391D02*
X10945967Y-8841772D01*
X10945967Y-8841772D02*
X10955491Y-8803677D01*
X10955491Y-8803677D02*
X10965015Y-8784629D01*
X10965015Y-8784629D02*
X10974539Y-8775105D01*
X10974539Y-8775105D02*
X10993586Y-8765582D01*
X11184063Y-8765582D02*
X11203110Y-8765582D01*
X11203110Y-8765582D02*
X11222158Y-8775105D01*
X11222158Y-8775105D02*
X11231682Y-8784629D01*
X11231682Y-8784629D02*
X11241205Y-8803677D01*
X11241205Y-8803677D02*
X11250729Y-8841772D01*
X11250729Y-8841772D02*
X11250729Y-8889391D01*
X11250729Y-8889391D02*
X11241205Y-8927486D01*
X11241205Y-8927486D02*
X11231682Y-8946534D01*
X11231682Y-8946534D02*
X11222158Y-8956058D01*
X11222158Y-8956058D02*
X11203110Y-8965582D01*
X11203110Y-8965582D02*
X11184063Y-8965582D01*
X11184063Y-8965582D02*
X11165015Y-8956058D01*
X11165015Y-8956058D02*
X11155491Y-8946534D01*
X11155491Y-8946534D02*
X11145967Y-8927486D01*
X11145967Y-8927486D02*
X11136444Y-8889391D01*
X11136444Y-8889391D02*
X11136444Y-8841772D01*
X11136444Y-8841772D02*
X11145967Y-8803677D01*
X11145967Y-8803677D02*
X11155491Y-8784629D01*
X11155491Y-8784629D02*
X11165015Y-8775105D01*
X11165015Y-8775105D02*
X11184063Y-8765582D01*
X11374539Y-8765582D02*
X11393586Y-8765582D01*
X11393586Y-8765582D02*
X11412634Y-8775105D01*
X11412634Y-8775105D02*
X11422158Y-8784629D01*
X11422158Y-8784629D02*
X11431682Y-8803677D01*
X11431682Y-8803677D02*
X11441205Y-8841772D01*
X11441205Y-8841772D02*
X11441205Y-8889391D01*
X11441205Y-8889391D02*
X11431682Y-8927486D01*
X11431682Y-8927486D02*
X11422158Y-8946534D01*
X11422158Y-8946534D02*
X11412634Y-8956058D01*
X11412634Y-8956058D02*
X11393586Y-8965582D01*
X11393586Y-8965582D02*
X11374539Y-8965582D01*
X11374539Y-8965582D02*
X11355491Y-8956058D01*
X11355491Y-8956058D02*
X11345967Y-8946534D01*
X11345967Y-8946534D02*
X11336443Y-8927486D01*
X11336443Y-8927486D02*
X11326920Y-8889391D01*
X11326920Y-8889391D02*
X11326920Y-8841772D01*
X11326920Y-8841772D02*
X11336443Y-8803677D01*
X11336443Y-8803677D02*
X11345967Y-8784629D01*
X11345967Y-8784629D02*
X11355491Y-8775105D01*
X11355491Y-8775105D02*
X11374539Y-8765582D01*
X11526920Y-8965582D02*
X11526920Y-8832248D01*
X11526920Y-8851296D02*
X11536443Y-8841772D01*
X11536443Y-8841772D02*
X11555491Y-8832248D01*
X11555491Y-8832248D02*
X11584063Y-8832248D01*
X11584063Y-8832248D02*
X11603110Y-8841772D01*
X11603110Y-8841772D02*
X11612634Y-8860820D01*
X11612634Y-8860820D02*
X11612634Y-8965582D01*
X11612634Y-8860820D02*
X11622158Y-8841772D01*
X11622158Y-8841772D02*
X11641205Y-8832248D01*
X11641205Y-8832248D02*
X11669777Y-8832248D01*
X11669777Y-8832248D02*
X11688824Y-8841772D01*
X11688824Y-8841772D02*
X11698348Y-8860820D01*
X11698348Y-8860820D02*
X11698348Y-8965582D01*
X11793586Y-8965582D02*
X11793586Y-8832248D01*
X11793586Y-8851296D02*
X11803110Y-8841772D01*
X11803110Y-8841772D02*
X11822158Y-8832248D01*
X11822158Y-8832248D02*
X11850729Y-8832248D01*
X11850729Y-8832248D02*
X11869777Y-8841772D01*
X11869777Y-8841772D02*
X11879301Y-8860820D01*
X11879301Y-8860820D02*
X11879301Y-8965582D01*
X11879301Y-8860820D02*
X11888824Y-8841772D01*
X11888824Y-8841772D02*
X11907872Y-8832248D01*
X11907872Y-8832248D02*
X11936443Y-8832248D01*
X11936443Y-8832248D02*
X11955491Y-8841772D01*
X11955491Y-8841772D02*
X11965015Y-8860820D01*
X11965015Y-8860820D02*
X11965015Y-8965582D01*
X12355491Y-8756058D02*
X12184063Y-9013201D01*
X12612634Y-8765582D02*
X12631682Y-8765582D01*
X12631682Y-8765582D02*
X12650729Y-8775105D01*
X12650729Y-8775105D02*
X12660253Y-8784629D01*
X12660253Y-8784629D02*
X12669777Y-8803677D01*
X12669777Y-8803677D02*
X12679301Y-8841772D01*
X12679301Y-8841772D02*
X12679301Y-8889391D01*
X12679301Y-8889391D02*
X12669777Y-8927486D01*
X12669777Y-8927486D02*
X12660253Y-8946534D01*
X12660253Y-8946534D02*
X12650729Y-8956058D01*
X12650729Y-8956058D02*
X12631682Y-8965582D01*
X12631682Y-8965582D02*
X12612634Y-8965582D01*
X12612634Y-8965582D02*
X12593586Y-8956058D01*
X12593586Y-8956058D02*
X12584063Y-8946534D01*
X12584063Y-8946534D02*
X12574539Y-8927486D01*
X12574539Y-8927486D02*
X12565015Y-8889391D01*
X12565015Y-8889391D02*
X12565015Y-8841772D01*
X12565015Y-8841772D02*
X12574539Y-8803677D01*
X12574539Y-8803677D02*
X12584063Y-8784629D01*
X12584063Y-8784629D02*
X12593586Y-8775105D01*
X12593586Y-8775105D02*
X12612634Y-8765582D01*
X12765015Y-8946534D02*
X12774539Y-8956058D01*
X12774539Y-8956058D02*
X12765015Y-8965582D01*
X12765015Y-8965582D02*
X12755491Y-8956058D01*
X12755491Y-8956058D02*
X12765015Y-8946534D01*
X12765015Y-8946534D02*
X12765015Y-8965582D01*
X12898348Y-8765582D02*
X12917396Y-8765582D01*
X12917396Y-8765582D02*
X12936444Y-8775105D01*
X12936444Y-8775105D02*
X12945967Y-8784629D01*
X12945967Y-8784629D02*
X12955491Y-8803677D01*
X12955491Y-8803677D02*
X12965015Y-8841772D01*
X12965015Y-8841772D02*
X12965015Y-8889391D01*
X12965015Y-8889391D02*
X12955491Y-8927486D01*
X12955491Y-8927486D02*
X12945967Y-8946534D01*
X12945967Y-8946534D02*
X12936444Y-8956058D01*
X12936444Y-8956058D02*
X12917396Y-8965582D01*
X12917396Y-8965582D02*
X12898348Y-8965582D01*
X12898348Y-8965582D02*
X12879301Y-8956058D01*
X12879301Y-8956058D02*
X12869777Y-8946534D01*
X12869777Y-8946534D02*
X12860253Y-8927486D01*
X12860253Y-8927486D02*
X12850729Y-8889391D01*
X12850729Y-8889391D02*
X12850729Y-8841772D01*
X12850729Y-8841772D02*
X12860253Y-8803677D01*
X12860253Y-8803677D02*
X12869777Y-8784629D01*
X12869777Y-8784629D02*
X12879301Y-8775105D01*
X12879301Y-8775105D02*
X12898348Y-8765582D01*
X13031682Y-8765582D02*
X13155491Y-8765582D01*
X13155491Y-8765582D02*
X13088825Y-8841772D01*
X13088825Y-8841772D02*
X13117396Y-8841772D01*
X13117396Y-8841772D02*
X13136444Y-8851296D01*
X13136444Y-8851296D02*
X13145967Y-8860820D01*
X13145967Y-8860820D02*
X13155491Y-8879867D01*
X13155491Y-8879867D02*
X13155491Y-8927486D01*
X13155491Y-8927486D02*
X13145967Y-8946534D01*
X13145967Y-8946534D02*
X13136444Y-8956058D01*
X13136444Y-8956058D02*
X13117396Y-8965582D01*
X13117396Y-8965582D02*
X13060253Y-8965582D01*
X13060253Y-8965582D02*
X13041206Y-8956058D01*
X13041206Y-8956058D02*
X13031682Y-8946534D01*
X13250729Y-8965582D02*
X13288825Y-8965582D01*
X13288825Y-8965582D02*
X13307872Y-8956058D01*
X13307872Y-8956058D02*
X13317396Y-8946534D01*
X13317396Y-8946534D02*
X13336444Y-8917963D01*
X13336444Y-8917963D02*
X13345967Y-8879867D01*
X13345967Y-8879867D02*
X13345967Y-8803677D01*
X13345967Y-8803677D02*
X13336444Y-8784629D01*
X13336444Y-8784629D02*
X13326920Y-8775105D01*
X13326920Y-8775105D02*
X13307872Y-8765582D01*
X13307872Y-8765582D02*
X13269777Y-8765582D01*
X13269777Y-8765582D02*
X13250729Y-8775105D01*
X13250729Y-8775105D02*
X13241206Y-8784629D01*
X13241206Y-8784629D02*
X13231682Y-8803677D01*
X13231682Y-8803677D02*
X13231682Y-8851296D01*
X13231682Y-8851296D02*
X13241206Y-8870344D01*
X13241206Y-8870344D02*
X13250729Y-8879867D01*
X13250729Y-8879867D02*
X13269777Y-8889391D01*
X13269777Y-8889391D02*
X13307872Y-8889391D01*
X13307872Y-8889391D02*
X13326920Y-8879867D01*
X13326920Y-8879867D02*
X13336444Y-8870344D01*
X13336444Y-8870344D02*
X13345967Y-8851296D01*
X13517396Y-8832248D02*
X13517396Y-8965582D01*
X13469777Y-8756058D02*
X13422158Y-8898915D01*
X13422158Y-8898915D02*
X13545967Y-8898915D01*
X13612634Y-8765582D02*
X13612634Y-8803677D01*
X13688825Y-8765582D02*
X13688825Y-8803677D01*
X13984063Y-9041772D02*
X13974539Y-9032248D01*
X13974539Y-9032248D02*
X13955491Y-9003677D01*
X13955491Y-9003677D02*
X13945968Y-8984629D01*
X13945968Y-8984629D02*
X13936444Y-8956058D01*
X13936444Y-8956058D02*
X13926920Y-8908439D01*
X13926920Y-8908439D02*
X13926920Y-8870344D01*
X13926920Y-8870344D02*
X13936444Y-8822724D01*
X13936444Y-8822724D02*
X13945968Y-8794153D01*
X13945968Y-8794153D02*
X13955491Y-8775105D01*
X13955491Y-8775105D02*
X13974539Y-8746534D01*
X13974539Y-8746534D02*
X13984063Y-8737010D01*
X14041206Y-8765582D02*
X14165015Y-8765582D01*
X14165015Y-8765582D02*
X14098348Y-8841772D01*
X14098348Y-8841772D02*
X14126920Y-8841772D01*
X14126920Y-8841772D02*
X14145968Y-8851296D01*
X14145968Y-8851296D02*
X14155491Y-8860820D01*
X14155491Y-8860820D02*
X14165015Y-8879867D01*
X14165015Y-8879867D02*
X14165015Y-8927486D01*
X14165015Y-8927486D02*
X14155491Y-8946534D01*
X14155491Y-8946534D02*
X14145968Y-8956058D01*
X14145968Y-8956058D02*
X14126920Y-8965582D01*
X14126920Y-8965582D02*
X14069777Y-8965582D01*
X14069777Y-8965582D02*
X14050729Y-8956058D01*
X14050729Y-8956058D02*
X14041206Y-8946534D01*
X14355491Y-8965582D02*
X14241206Y-8965582D01*
X14298348Y-8965582D02*
X14298348Y-8765582D01*
X14298348Y-8765582D02*
X14279301Y-8794153D01*
X14279301Y-8794153D02*
X14260253Y-8813201D01*
X14260253Y-8813201D02*
X14241206Y-8822724D01*
X14593587Y-8965582D02*
X14593587Y-8765582D01*
X14679301Y-8965582D02*
X14679301Y-8860820D01*
X14679301Y-8860820D02*
X14669777Y-8841772D01*
X14669777Y-8841772D02*
X14650730Y-8832248D01*
X14650730Y-8832248D02*
X14622158Y-8832248D01*
X14622158Y-8832248D02*
X14603110Y-8841772D01*
X14603110Y-8841772D02*
X14593587Y-8851296D01*
X14803110Y-8965582D02*
X14784063Y-8956058D01*
X14784063Y-8956058D02*
X14774539Y-8946534D01*
X14774539Y-8946534D02*
X14765015Y-8927486D01*
X14765015Y-8927486D02*
X14765015Y-8870344D01*
X14765015Y-8870344D02*
X14774539Y-8851296D01*
X14774539Y-8851296D02*
X14784063Y-8841772D01*
X14784063Y-8841772D02*
X14803110Y-8832248D01*
X14803110Y-8832248D02*
X14831682Y-8832248D01*
X14831682Y-8832248D02*
X14850730Y-8841772D01*
X14850730Y-8841772D02*
X14860253Y-8851296D01*
X14860253Y-8851296D02*
X14869777Y-8870344D01*
X14869777Y-8870344D02*
X14869777Y-8927486D01*
X14869777Y-8927486D02*
X14860253Y-8946534D01*
X14860253Y-8946534D02*
X14850730Y-8956058D01*
X14850730Y-8956058D02*
X14831682Y-8965582D01*
X14831682Y-8965582D02*
X14803110Y-8965582D01*
X14984063Y-8965582D02*
X14965015Y-8956058D01*
X14965015Y-8956058D02*
X14955491Y-8937010D01*
X14955491Y-8937010D02*
X14955491Y-8765582D01*
X15136444Y-8956058D02*
X15117396Y-8965582D01*
X15117396Y-8965582D02*
X15079301Y-8965582D01*
X15079301Y-8965582D02*
X15060253Y-8956058D01*
X15060253Y-8956058D02*
X15050730Y-8937010D01*
X15050730Y-8937010D02*
X15050730Y-8860820D01*
X15050730Y-8860820D02*
X15060253Y-8841772D01*
X15060253Y-8841772D02*
X15079301Y-8832248D01*
X15079301Y-8832248D02*
X15117396Y-8832248D01*
X15117396Y-8832248D02*
X15136444Y-8841772D01*
X15136444Y-8841772D02*
X15145968Y-8860820D01*
X15145968Y-8860820D02*
X15145968Y-8879867D01*
X15145968Y-8879867D02*
X15050730Y-8898915D01*
X15222158Y-8956058D02*
X15241206Y-8965582D01*
X15241206Y-8965582D02*
X15279301Y-8965582D01*
X15279301Y-8965582D02*
X15298349Y-8956058D01*
X15298349Y-8956058D02*
X15307872Y-8937010D01*
X15307872Y-8937010D02*
X15307872Y-8927486D01*
X15307872Y-8927486D02*
X15298349Y-8908439D01*
X15298349Y-8908439D02*
X15279301Y-8898915D01*
X15279301Y-8898915D02*
X15250730Y-8898915D01*
X15250730Y-8898915D02*
X15231682Y-8889391D01*
X15231682Y-8889391D02*
X15222158Y-8870344D01*
X15222158Y-8870344D02*
X15222158Y-8860820D01*
X15222158Y-8860820D02*
X15231682Y-8841772D01*
X15231682Y-8841772D02*
X15250730Y-8832248D01*
X15250730Y-8832248D02*
X15279301Y-8832248D01*
X15279301Y-8832248D02*
X15298349Y-8841772D01*
X15374539Y-9041772D02*
X15384063Y-9032248D01*
X15384063Y-9032248D02*
X15403111Y-9003677D01*
X15403111Y-9003677D02*
X15412634Y-8984629D01*
X15412634Y-8984629D02*
X15422158Y-8956058D01*
X15422158Y-8956058D02*
X15431682Y-8908439D01*
X15431682Y-8908439D02*
X15431682Y-8870344D01*
X15431682Y-8870344D02*
X15422158Y-8822724D01*
X15422158Y-8822724D02*
X15412634Y-8794153D01*
X15412634Y-8794153D02*
X15403111Y-8775105D01*
X15403111Y-8775105D02*
X15384063Y-8746534D01*
X15384063Y-8746534D02*
X15374539Y-8737010D01*
M02*
