%TF.GenerationSoftware,KiCad,Pcbnew,7.0.10*%
%TF.CreationDate,2024-06-02T15:41:47+02:00*%
%TF.ProjectId,eBoard_pcb,65426f61-7264-45f7-9063-622e6b696361,rev?*%
%TF.SameCoordinates,Original*%
%TF.FileFunction,Legend,Top*%
%TF.FilePolarity,Positive*%
%FSLAX46Y46*%
G04 Gerber Fmt 4.6, Leading zero omitted, Abs format (unit mm)*
G04 Created by KiCad (PCBNEW 7.0.10) date 2024-06-02 15:41:47*
%MOMM*%
%LPD*%
G01*
G04 APERTURE LIST*
%ADD10C,0.150000*%
%ADD11C,0.120000*%
G04 APERTURE END LIST*
D10*
X201866666Y-68299319D02*
X201866666Y-69013604D01*
X201866666Y-69013604D02*
X201819047Y-69156461D01*
X201819047Y-69156461D02*
X201723809Y-69251700D01*
X201723809Y-69251700D02*
X201580952Y-69299319D01*
X201580952Y-69299319D02*
X201485714Y-69299319D01*
X202819047Y-68299319D02*
X202342857Y-68299319D01*
X202342857Y-68299319D02*
X202295238Y-68775509D01*
X202295238Y-68775509D02*
X202342857Y-68727890D01*
X202342857Y-68727890D02*
X202438095Y-68680271D01*
X202438095Y-68680271D02*
X202676190Y-68680271D01*
X202676190Y-68680271D02*
X202771428Y-68727890D01*
X202771428Y-68727890D02*
X202819047Y-68775509D01*
X202819047Y-68775509D02*
X202866666Y-68870747D01*
X202866666Y-68870747D02*
X202866666Y-69108842D01*
X202866666Y-69108842D02*
X202819047Y-69204080D01*
X202819047Y-69204080D02*
X202771428Y-69251700D01*
X202771428Y-69251700D02*
X202676190Y-69299319D01*
X202676190Y-69299319D02*
X202438095Y-69299319D01*
X202438095Y-69299319D02*
X202342857Y-69251700D01*
X202342857Y-69251700D02*
X202295238Y-69204080D01*
X149259004Y-67154285D02*
X149259004Y-66678095D01*
X149544719Y-67249523D02*
X148544719Y-66916190D01*
X148544719Y-66916190D02*
X149544719Y-66582857D01*
X149544719Y-65725714D02*
X149544719Y-66297142D01*
X149544719Y-66011428D02*
X148544719Y-66011428D01*
X148544719Y-66011428D02*
X148687576Y-66106666D01*
X148687576Y-66106666D02*
X148782814Y-66201904D01*
X148782814Y-66201904D02*
X148830433Y-66297142D01*
X108915180Y-65178095D02*
X108105657Y-65178095D01*
X108105657Y-65178095D02*
X108010419Y-65225714D01*
X108010419Y-65225714D02*
X107962800Y-65273333D01*
X107962800Y-65273333D02*
X107915180Y-65368571D01*
X107915180Y-65368571D02*
X107915180Y-65559047D01*
X107915180Y-65559047D02*
X107962800Y-65654285D01*
X107962800Y-65654285D02*
X108010419Y-65701904D01*
X108010419Y-65701904D02*
X108105657Y-65749523D01*
X108105657Y-65749523D02*
X108915180Y-65749523D01*
X107962800Y-66178095D02*
X107915180Y-66320952D01*
X107915180Y-66320952D02*
X107915180Y-66559047D01*
X107915180Y-66559047D02*
X107962800Y-66654285D01*
X107962800Y-66654285D02*
X108010419Y-66701904D01*
X108010419Y-66701904D02*
X108105657Y-66749523D01*
X108105657Y-66749523D02*
X108200895Y-66749523D01*
X108200895Y-66749523D02*
X108296133Y-66701904D01*
X108296133Y-66701904D02*
X108343752Y-66654285D01*
X108343752Y-66654285D02*
X108391371Y-66559047D01*
X108391371Y-66559047D02*
X108438990Y-66368571D01*
X108438990Y-66368571D02*
X108486609Y-66273333D01*
X108486609Y-66273333D02*
X108534228Y-66225714D01*
X108534228Y-66225714D02*
X108629466Y-66178095D01*
X108629466Y-66178095D02*
X108724704Y-66178095D01*
X108724704Y-66178095D02*
X108819942Y-66225714D01*
X108819942Y-66225714D02*
X108867561Y-66273333D01*
X108867561Y-66273333D02*
X108915180Y-66368571D01*
X108915180Y-66368571D02*
X108915180Y-66606666D01*
X108915180Y-66606666D02*
X108867561Y-66749523D01*
X108438990Y-67511428D02*
X108391371Y-67654285D01*
X108391371Y-67654285D02*
X108343752Y-67701904D01*
X108343752Y-67701904D02*
X108248514Y-67749523D01*
X108248514Y-67749523D02*
X108105657Y-67749523D01*
X108105657Y-67749523D02*
X108010419Y-67701904D01*
X108010419Y-67701904D02*
X107962800Y-67654285D01*
X107962800Y-67654285D02*
X107915180Y-67559047D01*
X107915180Y-67559047D02*
X107915180Y-67178095D01*
X107915180Y-67178095D02*
X108915180Y-67178095D01*
X108915180Y-67178095D02*
X108915180Y-67511428D01*
X108915180Y-67511428D02*
X108867561Y-67606666D01*
X108867561Y-67606666D02*
X108819942Y-67654285D01*
X108819942Y-67654285D02*
X108724704Y-67701904D01*
X108724704Y-67701904D02*
X108629466Y-67701904D01*
X108629466Y-67701904D02*
X108534228Y-67654285D01*
X108534228Y-67654285D02*
X108486609Y-67606666D01*
X108486609Y-67606666D02*
X108438990Y-67511428D01*
X108438990Y-67511428D02*
X108438990Y-67178095D01*
X177926666Y-68299319D02*
X177926666Y-69013604D01*
X177926666Y-69013604D02*
X177879047Y-69156461D01*
X177879047Y-69156461D02*
X177783809Y-69251700D01*
X177783809Y-69251700D02*
X177640952Y-69299319D01*
X177640952Y-69299319D02*
X177545714Y-69299319D01*
X178307619Y-68299319D02*
X178926666Y-68299319D01*
X178926666Y-68299319D02*
X178593333Y-68680271D01*
X178593333Y-68680271D02*
X178736190Y-68680271D01*
X178736190Y-68680271D02*
X178831428Y-68727890D01*
X178831428Y-68727890D02*
X178879047Y-68775509D01*
X178879047Y-68775509D02*
X178926666Y-68870747D01*
X178926666Y-68870747D02*
X178926666Y-69108842D01*
X178926666Y-69108842D02*
X178879047Y-69204080D01*
X178879047Y-69204080D02*
X178831428Y-69251700D01*
X178831428Y-69251700D02*
X178736190Y-69299319D01*
X178736190Y-69299319D02*
X178450476Y-69299319D01*
X178450476Y-69299319D02*
X178355238Y-69251700D01*
X178355238Y-69251700D02*
X178307619Y-69204080D01*
X172384819Y-63616404D02*
X173194342Y-63616404D01*
X173194342Y-63616404D02*
X173289580Y-63568785D01*
X173289580Y-63568785D02*
X173337200Y-63521166D01*
X173337200Y-63521166D02*
X173384819Y-63425928D01*
X173384819Y-63425928D02*
X173384819Y-63235452D01*
X173384819Y-63235452D02*
X173337200Y-63140214D01*
X173337200Y-63140214D02*
X173289580Y-63092595D01*
X173289580Y-63092595D02*
X173194342Y-63044976D01*
X173194342Y-63044976D02*
X172384819Y-63044976D01*
X172480057Y-62616404D02*
X172432438Y-62568785D01*
X172432438Y-62568785D02*
X172384819Y-62473547D01*
X172384819Y-62473547D02*
X172384819Y-62235452D01*
X172384819Y-62235452D02*
X172432438Y-62140214D01*
X172432438Y-62140214D02*
X172480057Y-62092595D01*
X172480057Y-62092595D02*
X172575295Y-62044976D01*
X172575295Y-62044976D02*
X172670533Y-62044976D01*
X172670533Y-62044976D02*
X172813390Y-62092595D01*
X172813390Y-62092595D02*
X173384819Y-62664023D01*
X173384819Y-62664023D02*
X173384819Y-62044976D01*
X224707766Y-69007919D02*
X224707766Y-69722204D01*
X224707766Y-69722204D02*
X224660147Y-69865061D01*
X224660147Y-69865061D02*
X224564909Y-69960300D01*
X224564909Y-69960300D02*
X224422052Y-70007919D01*
X224422052Y-70007919D02*
X224326814Y-70007919D01*
X225326814Y-69436490D02*
X225231576Y-69388871D01*
X225231576Y-69388871D02*
X225183957Y-69341252D01*
X225183957Y-69341252D02*
X225136338Y-69246014D01*
X225136338Y-69246014D02*
X225136338Y-69198395D01*
X225136338Y-69198395D02*
X225183957Y-69103157D01*
X225183957Y-69103157D02*
X225231576Y-69055538D01*
X225231576Y-69055538D02*
X225326814Y-69007919D01*
X225326814Y-69007919D02*
X225517290Y-69007919D01*
X225517290Y-69007919D02*
X225612528Y-69055538D01*
X225612528Y-69055538D02*
X225660147Y-69103157D01*
X225660147Y-69103157D02*
X225707766Y-69198395D01*
X225707766Y-69198395D02*
X225707766Y-69246014D01*
X225707766Y-69246014D02*
X225660147Y-69341252D01*
X225660147Y-69341252D02*
X225612528Y-69388871D01*
X225612528Y-69388871D02*
X225517290Y-69436490D01*
X225517290Y-69436490D02*
X225326814Y-69436490D01*
X225326814Y-69436490D02*
X225231576Y-69484109D01*
X225231576Y-69484109D02*
X225183957Y-69531728D01*
X225183957Y-69531728D02*
X225136338Y-69626966D01*
X225136338Y-69626966D02*
X225136338Y-69817442D01*
X225136338Y-69817442D02*
X225183957Y-69912680D01*
X225183957Y-69912680D02*
X225231576Y-69960300D01*
X225231576Y-69960300D02*
X225326814Y-70007919D01*
X225326814Y-70007919D02*
X225517290Y-70007919D01*
X225517290Y-70007919D02*
X225612528Y-69960300D01*
X225612528Y-69960300D02*
X225660147Y-69912680D01*
X225660147Y-69912680D02*
X225707766Y-69817442D01*
X225707766Y-69817442D02*
X225707766Y-69626966D01*
X225707766Y-69626966D02*
X225660147Y-69531728D01*
X225660147Y-69531728D02*
X225612528Y-69484109D01*
X225612528Y-69484109D02*
X225517290Y-69436490D01*
X224766766Y-68396419D02*
X224766766Y-69110704D01*
X224766766Y-69110704D02*
X224719147Y-69253561D01*
X224719147Y-69253561D02*
X224623909Y-69348800D01*
X224623909Y-69348800D02*
X224481052Y-69396419D01*
X224481052Y-69396419D02*
X224385814Y-69396419D01*
X225290576Y-69396419D02*
X225481052Y-69396419D01*
X225481052Y-69396419D02*
X225576290Y-69348800D01*
X225576290Y-69348800D02*
X225623909Y-69301180D01*
X225623909Y-69301180D02*
X225719147Y-69158323D01*
X225719147Y-69158323D02*
X225766766Y-68967847D01*
X225766766Y-68967847D02*
X225766766Y-68586895D01*
X225766766Y-68586895D02*
X225719147Y-68491657D01*
X225719147Y-68491657D02*
X225671528Y-68444038D01*
X225671528Y-68444038D02*
X225576290Y-68396419D01*
X225576290Y-68396419D02*
X225385814Y-68396419D01*
X225385814Y-68396419D02*
X225290576Y-68444038D01*
X225290576Y-68444038D02*
X225242957Y-68491657D01*
X225242957Y-68491657D02*
X225195338Y-68586895D01*
X225195338Y-68586895D02*
X225195338Y-68824990D01*
X225195338Y-68824990D02*
X225242957Y-68920228D01*
X225242957Y-68920228D02*
X225290576Y-68967847D01*
X225290576Y-68967847D02*
X225385814Y-69015466D01*
X225385814Y-69015466D02*
X225576290Y-69015466D01*
X225576290Y-69015466D02*
X225671528Y-68967847D01*
X225671528Y-68967847D02*
X225719147Y-68920228D01*
X225719147Y-68920228D02*
X225766766Y-68824990D01*
X189166666Y-68299319D02*
X189166666Y-69013604D01*
X189166666Y-69013604D02*
X189119047Y-69156461D01*
X189119047Y-69156461D02*
X189023809Y-69251700D01*
X189023809Y-69251700D02*
X188880952Y-69299319D01*
X188880952Y-69299319D02*
X188785714Y-69299319D01*
X190071428Y-68632652D02*
X190071428Y-69299319D01*
X189833333Y-68251700D02*
X189595238Y-68965985D01*
X189595238Y-68965985D02*
X190214285Y-68965985D01*
X195244819Y-63616404D02*
X196054342Y-63616404D01*
X196054342Y-63616404D02*
X196149580Y-63568785D01*
X196149580Y-63568785D02*
X196197200Y-63521166D01*
X196197200Y-63521166D02*
X196244819Y-63425928D01*
X196244819Y-63425928D02*
X196244819Y-63235452D01*
X196244819Y-63235452D02*
X196197200Y-63140214D01*
X196197200Y-63140214D02*
X196149580Y-63092595D01*
X196149580Y-63092595D02*
X196054342Y-63044976D01*
X196054342Y-63044976D02*
X195244819Y-63044976D01*
X195244819Y-62664023D02*
X195244819Y-62044976D01*
X195244819Y-62044976D02*
X195625771Y-62378309D01*
X195625771Y-62378309D02*
X195625771Y-62235452D01*
X195625771Y-62235452D02*
X195673390Y-62140214D01*
X195673390Y-62140214D02*
X195721009Y-62092595D01*
X195721009Y-62092595D02*
X195816247Y-62044976D01*
X195816247Y-62044976D02*
X196054342Y-62044976D01*
X196054342Y-62044976D02*
X196149580Y-62092595D01*
X196149580Y-62092595D02*
X196197200Y-62140214D01*
X196197200Y-62140214D02*
X196244819Y-62235452D01*
X196244819Y-62235452D02*
X196244819Y-62521166D01*
X196244819Y-62521166D02*
X196197200Y-62616404D01*
X196197200Y-62616404D02*
X196149580Y-62664023D01*
X166306666Y-68299319D02*
X166306666Y-69013604D01*
X166306666Y-69013604D02*
X166259047Y-69156461D01*
X166259047Y-69156461D02*
X166163809Y-69251700D01*
X166163809Y-69251700D02*
X166020952Y-69299319D01*
X166020952Y-69299319D02*
X165925714Y-69299319D01*
X166735238Y-68394557D02*
X166782857Y-68346938D01*
X166782857Y-68346938D02*
X166878095Y-68299319D01*
X166878095Y-68299319D02*
X167116190Y-68299319D01*
X167116190Y-68299319D02*
X167211428Y-68346938D01*
X167211428Y-68346938D02*
X167259047Y-68394557D01*
X167259047Y-68394557D02*
X167306666Y-68489795D01*
X167306666Y-68489795D02*
X167306666Y-68585033D01*
X167306666Y-68585033D02*
X167259047Y-68727890D01*
X167259047Y-68727890D02*
X166687619Y-69299319D01*
X166687619Y-69299319D02*
X167306666Y-69299319D01*
X155066666Y-68299319D02*
X155066666Y-69013604D01*
X155066666Y-69013604D02*
X155019047Y-69156461D01*
X155019047Y-69156461D02*
X154923809Y-69251700D01*
X154923809Y-69251700D02*
X154780952Y-69299319D01*
X154780952Y-69299319D02*
X154685714Y-69299319D01*
X156066666Y-69299319D02*
X155495238Y-69299319D01*
X155780952Y-69299319D02*
X155780952Y-68299319D01*
X155780952Y-68299319D02*
X155685714Y-68442176D01*
X155685714Y-68442176D02*
X155590476Y-68537414D01*
X155590476Y-68537414D02*
X155495238Y-68585033D01*
X149524819Y-63616404D02*
X150334342Y-63616404D01*
X150334342Y-63616404D02*
X150429580Y-63568785D01*
X150429580Y-63568785D02*
X150477200Y-63521166D01*
X150477200Y-63521166D02*
X150524819Y-63425928D01*
X150524819Y-63425928D02*
X150524819Y-63235452D01*
X150524819Y-63235452D02*
X150477200Y-63140214D01*
X150477200Y-63140214D02*
X150429580Y-63092595D01*
X150429580Y-63092595D02*
X150334342Y-63044976D01*
X150334342Y-63044976D02*
X149524819Y-63044976D01*
X150524819Y-62044976D02*
X150524819Y-62616404D01*
X150524819Y-62330690D02*
X149524819Y-62330690D01*
X149524819Y-62330690D02*
X149667676Y-62425928D01*
X149667676Y-62425928D02*
X149762914Y-62521166D01*
X149762914Y-62521166D02*
X149810533Y-62616404D01*
X218789580Y-59836666D02*
X218837200Y-59884285D01*
X218837200Y-59884285D02*
X218884819Y-60027142D01*
X218884819Y-60027142D02*
X218884819Y-60122380D01*
X218884819Y-60122380D02*
X218837200Y-60265237D01*
X218837200Y-60265237D02*
X218741961Y-60360475D01*
X218741961Y-60360475D02*
X218646723Y-60408094D01*
X218646723Y-60408094D02*
X218456247Y-60455713D01*
X218456247Y-60455713D02*
X218313390Y-60455713D01*
X218313390Y-60455713D02*
X218122914Y-60408094D01*
X218122914Y-60408094D02*
X218027676Y-60360475D01*
X218027676Y-60360475D02*
X217932438Y-60265237D01*
X217932438Y-60265237D02*
X217884819Y-60122380D01*
X217884819Y-60122380D02*
X217884819Y-60027142D01*
X217884819Y-60027142D02*
X217932438Y-59884285D01*
X217932438Y-59884285D02*
X217980057Y-59836666D01*
X217980057Y-59455713D02*
X217932438Y-59408094D01*
X217932438Y-59408094D02*
X217884819Y-59312856D01*
X217884819Y-59312856D02*
X217884819Y-59074761D01*
X217884819Y-59074761D02*
X217932438Y-58979523D01*
X217932438Y-58979523D02*
X217980057Y-58931904D01*
X217980057Y-58931904D02*
X218075295Y-58884285D01*
X218075295Y-58884285D02*
X218170533Y-58884285D01*
X218170533Y-58884285D02*
X218313390Y-58931904D01*
X218313390Y-58931904D02*
X218884819Y-59503332D01*
X218884819Y-59503332D02*
X218884819Y-58884285D01*
X229153566Y-56610019D02*
X229153566Y-57324304D01*
X229153566Y-57324304D02*
X229105947Y-57467161D01*
X229105947Y-57467161D02*
X229010709Y-57562400D01*
X229010709Y-57562400D02*
X228867852Y-57610019D01*
X228867852Y-57610019D02*
X228772614Y-57610019D01*
X229534519Y-56610019D02*
X230201185Y-56610019D01*
X230201185Y-56610019D02*
X229772614Y-57610019D01*
X212946666Y-68299319D02*
X212946666Y-69013604D01*
X212946666Y-69013604D02*
X212899047Y-69156461D01*
X212899047Y-69156461D02*
X212803809Y-69251700D01*
X212803809Y-69251700D02*
X212660952Y-69299319D01*
X212660952Y-69299319D02*
X212565714Y-69299319D01*
X213851428Y-68299319D02*
X213660952Y-68299319D01*
X213660952Y-68299319D02*
X213565714Y-68346938D01*
X213565714Y-68346938D02*
X213518095Y-68394557D01*
X213518095Y-68394557D02*
X213422857Y-68537414D01*
X213422857Y-68537414D02*
X213375238Y-68727890D01*
X213375238Y-68727890D02*
X213375238Y-69108842D01*
X213375238Y-69108842D02*
X213422857Y-69204080D01*
X213422857Y-69204080D02*
X213470476Y-69251700D01*
X213470476Y-69251700D02*
X213565714Y-69299319D01*
X213565714Y-69299319D02*
X213756190Y-69299319D01*
X213756190Y-69299319D02*
X213851428Y-69251700D01*
X213851428Y-69251700D02*
X213899047Y-69204080D01*
X213899047Y-69204080D02*
X213946666Y-69108842D01*
X213946666Y-69108842D02*
X213946666Y-68870747D01*
X213946666Y-68870747D02*
X213899047Y-68775509D01*
X213899047Y-68775509D02*
X213851428Y-68727890D01*
X213851428Y-68727890D02*
X213756190Y-68680271D01*
X213756190Y-68680271D02*
X213565714Y-68680271D01*
X213565714Y-68680271D02*
X213470476Y-68727890D01*
X213470476Y-68727890D02*
X213422857Y-68775509D01*
X213422857Y-68775509D02*
X213375238Y-68870747D01*
D11*
%TO.C,J5*%
X196840000Y-69634500D02*
X196840000Y-70884500D01*
X197140000Y-69934500D02*
X197140000Y-74654500D01*
X197140000Y-71244500D02*
X197750000Y-71244500D01*
X197140000Y-72544500D02*
X197750000Y-72544500D01*
X197140000Y-74654500D02*
X207260000Y-74654500D01*
X197750000Y-70544500D02*
X197750000Y-74044500D01*
X197750000Y-74044500D02*
X206650000Y-74044500D01*
X198090000Y-69634500D02*
X196840000Y-69634500D01*
X198600000Y-69734500D02*
X198600000Y-69934500D01*
X198900000Y-69734500D02*
X198600000Y-69734500D01*
X198900000Y-69834500D02*
X198600000Y-69834500D01*
X198900000Y-69934500D02*
X198900000Y-69734500D01*
X199700000Y-69934500D02*
X199700000Y-70544500D01*
X199700000Y-70544500D02*
X197750000Y-70544500D01*
X200100000Y-73544500D02*
X200300000Y-73544500D01*
X200100000Y-74044500D02*
X200100000Y-73544500D01*
X200200000Y-74044500D02*
X200200000Y-73544500D01*
X200300000Y-73544500D02*
X200300000Y-74044500D01*
X202100000Y-73544500D02*
X202300000Y-73544500D01*
X202100000Y-74044500D02*
X202100000Y-73544500D01*
X202200000Y-74044500D02*
X202200000Y-73544500D01*
X202300000Y-73544500D02*
X202300000Y-74044500D01*
X204100000Y-73544500D02*
X204300000Y-73544500D01*
X204100000Y-74044500D02*
X204100000Y-73544500D01*
X204200000Y-74044500D02*
X204200000Y-73544500D01*
X204300000Y-73544500D02*
X204300000Y-74044500D01*
X204700000Y-70544500D02*
X204700000Y-69934500D01*
X206650000Y-70544500D02*
X204700000Y-70544500D01*
X206650000Y-74044500D02*
X206650000Y-70544500D01*
X207260000Y-69934500D02*
X197140000Y-69934500D01*
X207260000Y-71244500D02*
X206650000Y-71244500D01*
X207260000Y-72544500D02*
X206650000Y-72544500D01*
X207260000Y-74654500D02*
X207260000Y-69934500D01*
%TO.C,A1*%
X147870000Y-57420000D02*
X145200000Y-57420000D01*
X142660000Y-57420000D02*
X104430000Y-57420000D01*
X104430000Y-57420000D02*
X104430000Y-62500000D01*
X145200000Y-60090000D02*
X145200000Y-57420000D01*
X142660000Y-60090000D02*
X142660000Y-57420000D01*
X142660000Y-60090000D02*
X145200000Y-60090000D01*
X142660000Y-60090000D02*
X107100000Y-60090000D01*
X107100000Y-60090000D02*
X107100000Y-57420000D01*
X112310000Y-62500000D02*
X112310000Y-70380000D01*
X101890000Y-62500000D02*
X112310000Y-62500000D01*
X112310000Y-70380000D02*
X101890000Y-70380000D01*
X101890000Y-70380000D02*
X101890000Y-62500000D01*
X145200000Y-72790000D02*
X107100000Y-72790000D01*
X145200000Y-72790000D02*
X145200000Y-75460000D01*
X107100000Y-72790000D02*
X107100000Y-75460000D01*
X147870000Y-75460000D02*
X147870000Y-57420000D01*
X104430000Y-75460000D02*
X104430000Y-70380000D01*
X104430000Y-75460000D02*
X147870000Y-75460000D01*
%TO.C,J3*%
X172900000Y-69634500D02*
X172900000Y-70884500D01*
X173200000Y-69934500D02*
X173200000Y-74654500D01*
X173200000Y-71244500D02*
X173810000Y-71244500D01*
X173200000Y-72544500D02*
X173810000Y-72544500D01*
X173200000Y-74654500D02*
X183320000Y-74654500D01*
X173810000Y-70544500D02*
X173810000Y-74044500D01*
X173810000Y-74044500D02*
X182710000Y-74044500D01*
X174150000Y-69634500D02*
X172900000Y-69634500D01*
X174660000Y-69734500D02*
X174660000Y-69934500D01*
X174960000Y-69734500D02*
X174660000Y-69734500D01*
X174960000Y-69834500D02*
X174660000Y-69834500D01*
X174960000Y-69934500D02*
X174960000Y-69734500D01*
X175760000Y-69934500D02*
X175760000Y-70544500D01*
X175760000Y-70544500D02*
X173810000Y-70544500D01*
X176160000Y-73544500D02*
X176360000Y-73544500D01*
X176160000Y-74044500D02*
X176160000Y-73544500D01*
X176260000Y-74044500D02*
X176260000Y-73544500D01*
X176360000Y-73544500D02*
X176360000Y-74044500D01*
X178160000Y-73544500D02*
X178360000Y-73544500D01*
X178160000Y-74044500D02*
X178160000Y-73544500D01*
X178260000Y-74044500D02*
X178260000Y-73544500D01*
X178360000Y-73544500D02*
X178360000Y-74044500D01*
X180160000Y-73544500D02*
X180360000Y-73544500D01*
X180160000Y-74044500D02*
X180160000Y-73544500D01*
X180260000Y-74044500D02*
X180260000Y-73544500D01*
X180360000Y-73544500D02*
X180360000Y-74044500D01*
X180760000Y-70544500D02*
X180760000Y-69934500D01*
X182710000Y-70544500D02*
X180760000Y-70544500D01*
X182710000Y-74044500D02*
X182710000Y-70544500D01*
X183320000Y-69934500D02*
X173200000Y-69934500D01*
X183320000Y-71244500D02*
X182710000Y-71244500D01*
X183320000Y-72544500D02*
X182710000Y-72544500D01*
X183320000Y-74654500D02*
X183320000Y-69934500D01*
%TO.C,U2*%
X173870000Y-67994500D02*
X194430000Y-67994500D01*
X194430000Y-67994500D02*
X194430000Y-57714500D01*
X173930000Y-65504500D02*
X194370000Y-65504500D01*
X194370000Y-65504500D02*
X194370000Y-60204500D01*
X173930000Y-63854500D02*
X173930000Y-65504500D01*
X173930000Y-60204500D02*
X173930000Y-61854500D01*
X194370000Y-60204500D02*
X173930000Y-60204500D01*
X173870000Y-57714500D02*
X173870000Y-67994500D01*
X194430000Y-57714500D02*
X173870000Y-57714500D01*
X173930000Y-63854500D02*
G75*
G03*
X173930000Y-61854500I0J1000000D01*
G01*
%TO.C,J8*%
X230401100Y-68763100D02*
X230401100Y-67513100D01*
X230101100Y-68463100D02*
X230101100Y-63743100D01*
X230101100Y-67153100D02*
X229491100Y-67153100D01*
X230101100Y-65853100D02*
X229491100Y-65853100D01*
X230101100Y-63743100D02*
X219981100Y-63743100D01*
X229491100Y-67853100D02*
X229491100Y-64353100D01*
X229491100Y-64353100D02*
X220591100Y-64353100D01*
X229151100Y-68763100D02*
X230401100Y-68763100D01*
X228641100Y-68663100D02*
X228641100Y-68463100D01*
X228341100Y-68663100D02*
X228641100Y-68663100D01*
X228341100Y-68563100D02*
X228641100Y-68563100D01*
X228341100Y-68463100D02*
X228341100Y-68663100D01*
X227541100Y-68463100D02*
X227541100Y-67853100D01*
X227541100Y-67853100D02*
X229491100Y-67853100D01*
X227141100Y-64853100D02*
X226941100Y-64853100D01*
X227141100Y-64353100D02*
X227141100Y-64853100D01*
X227041100Y-64353100D02*
X227041100Y-64853100D01*
X226941100Y-64853100D02*
X226941100Y-64353100D01*
X225141100Y-64853100D02*
X224941100Y-64853100D01*
X225141100Y-64353100D02*
X225141100Y-64853100D01*
X225041100Y-64353100D02*
X225041100Y-64853100D01*
X224941100Y-64853100D02*
X224941100Y-64353100D01*
X223141100Y-64853100D02*
X222941100Y-64853100D01*
X223141100Y-64353100D02*
X223141100Y-64853100D01*
X223041100Y-64353100D02*
X223041100Y-64853100D01*
X222941100Y-64853100D02*
X222941100Y-64353100D01*
X222541100Y-67853100D02*
X222541100Y-68463100D01*
X220591100Y-67853100D02*
X222541100Y-67853100D01*
X220591100Y-64353100D02*
X220591100Y-67853100D01*
X219981100Y-68463100D02*
X230101100Y-68463100D01*
X219981100Y-67153100D02*
X220591100Y-67153100D01*
X219981100Y-65853100D02*
X220591100Y-65853100D01*
X219981100Y-63743100D02*
X219981100Y-68463100D01*
%TO.C,J9*%
X219740100Y-69731600D02*
X219740100Y-70981600D01*
X220040100Y-70031600D02*
X220040100Y-74751600D01*
X220040100Y-71341600D02*
X220650100Y-71341600D01*
X220040100Y-72641600D02*
X220650100Y-72641600D01*
X220040100Y-74751600D02*
X230160100Y-74751600D01*
X220650100Y-70641600D02*
X220650100Y-74141600D01*
X220650100Y-74141600D02*
X229550100Y-74141600D01*
X220990100Y-69731600D02*
X219740100Y-69731600D01*
X221500100Y-69831600D02*
X221500100Y-70031600D01*
X221800100Y-69831600D02*
X221500100Y-69831600D01*
X221800100Y-69931600D02*
X221500100Y-69931600D01*
X221800100Y-70031600D02*
X221800100Y-69831600D01*
X222600100Y-70031600D02*
X222600100Y-70641600D01*
X222600100Y-70641600D02*
X220650100Y-70641600D01*
X223000100Y-73641600D02*
X223200100Y-73641600D01*
X223000100Y-74141600D02*
X223000100Y-73641600D01*
X223100100Y-74141600D02*
X223100100Y-73641600D01*
X223200100Y-73641600D02*
X223200100Y-74141600D01*
X225000100Y-73641600D02*
X225200100Y-73641600D01*
X225000100Y-74141600D02*
X225000100Y-73641600D01*
X225100100Y-74141600D02*
X225100100Y-73641600D01*
X225200100Y-73641600D02*
X225200100Y-74141600D01*
X227000100Y-73641600D02*
X227200100Y-73641600D01*
X227000100Y-74141600D02*
X227000100Y-73641600D01*
X227100100Y-74141600D02*
X227100100Y-73641600D01*
X227200100Y-73641600D02*
X227200100Y-74141600D01*
X227600100Y-70641600D02*
X227600100Y-70031600D01*
X229550100Y-70641600D02*
X227600100Y-70641600D01*
X229550100Y-74141600D02*
X229550100Y-70641600D01*
X230160100Y-70031600D02*
X220040100Y-70031600D01*
X230160100Y-71341600D02*
X229550100Y-71341600D01*
X230160100Y-72641600D02*
X229550100Y-72641600D01*
X230160100Y-74751600D02*
X230160100Y-70031600D01*
%TO.C,J4*%
X184140000Y-69634500D02*
X184140000Y-70884500D01*
X184440000Y-69934500D02*
X184440000Y-74654500D01*
X184440000Y-71244500D02*
X185050000Y-71244500D01*
X184440000Y-72544500D02*
X185050000Y-72544500D01*
X184440000Y-74654500D02*
X194560000Y-74654500D01*
X185050000Y-70544500D02*
X185050000Y-74044500D01*
X185050000Y-74044500D02*
X193950000Y-74044500D01*
X185390000Y-69634500D02*
X184140000Y-69634500D01*
X185900000Y-69734500D02*
X185900000Y-69934500D01*
X186200000Y-69734500D02*
X185900000Y-69734500D01*
X186200000Y-69834500D02*
X185900000Y-69834500D01*
X186200000Y-69934500D02*
X186200000Y-69734500D01*
X187000000Y-69934500D02*
X187000000Y-70544500D01*
X187000000Y-70544500D02*
X185050000Y-70544500D01*
X187400000Y-73544500D02*
X187600000Y-73544500D01*
X187400000Y-74044500D02*
X187400000Y-73544500D01*
X187500000Y-74044500D02*
X187500000Y-73544500D01*
X187600000Y-73544500D02*
X187600000Y-74044500D01*
X189400000Y-73544500D02*
X189600000Y-73544500D01*
X189400000Y-74044500D02*
X189400000Y-73544500D01*
X189500000Y-74044500D02*
X189500000Y-73544500D01*
X189600000Y-73544500D02*
X189600000Y-74044500D01*
X191400000Y-73544500D02*
X191600000Y-73544500D01*
X191400000Y-74044500D02*
X191400000Y-73544500D01*
X191500000Y-74044500D02*
X191500000Y-73544500D01*
X191600000Y-73544500D02*
X191600000Y-74044500D01*
X192000000Y-70544500D02*
X192000000Y-69934500D01*
X193950000Y-70544500D02*
X192000000Y-70544500D01*
X193950000Y-74044500D02*
X193950000Y-70544500D01*
X194560000Y-69934500D02*
X184440000Y-69934500D01*
X194560000Y-71244500D02*
X193950000Y-71244500D01*
X194560000Y-72544500D02*
X193950000Y-72544500D01*
X194560000Y-74654500D02*
X194560000Y-69934500D01*
%TO.C,U3*%
X196730000Y-67994500D02*
X217290000Y-67994500D01*
X217290000Y-67994500D02*
X217290000Y-57714500D01*
X196790000Y-65504500D02*
X217230000Y-65504500D01*
X217230000Y-65504500D02*
X217230000Y-60204500D01*
X196790000Y-63854500D02*
X196790000Y-65504500D01*
X196790000Y-60204500D02*
X196790000Y-61854500D01*
X217230000Y-60204500D02*
X196790000Y-60204500D01*
X196730000Y-57714500D02*
X196730000Y-67994500D01*
X217290000Y-57714500D02*
X196730000Y-57714500D01*
X196790000Y-63854500D02*
G75*
G03*
X196790000Y-61854500I0J1000000D01*
G01*
%TO.C,J2*%
X161280000Y-69634500D02*
X161280000Y-70884500D01*
X161580000Y-69934500D02*
X161580000Y-74654500D01*
X161580000Y-71244500D02*
X162190000Y-71244500D01*
X161580000Y-72544500D02*
X162190000Y-72544500D01*
X161580000Y-74654500D02*
X171700000Y-74654500D01*
X162190000Y-70544500D02*
X162190000Y-74044500D01*
X162190000Y-74044500D02*
X171090000Y-74044500D01*
X162530000Y-69634500D02*
X161280000Y-69634500D01*
X163040000Y-69734500D02*
X163040000Y-69934500D01*
X163340000Y-69734500D02*
X163040000Y-69734500D01*
X163340000Y-69834500D02*
X163040000Y-69834500D01*
X163340000Y-69934500D02*
X163340000Y-69734500D01*
X164140000Y-69934500D02*
X164140000Y-70544500D01*
X164140000Y-70544500D02*
X162190000Y-70544500D01*
X164540000Y-73544500D02*
X164740000Y-73544500D01*
X164540000Y-74044500D02*
X164540000Y-73544500D01*
X164640000Y-74044500D02*
X164640000Y-73544500D01*
X164740000Y-73544500D02*
X164740000Y-74044500D01*
X166540000Y-73544500D02*
X166740000Y-73544500D01*
X166540000Y-74044500D02*
X166540000Y-73544500D01*
X166640000Y-74044500D02*
X166640000Y-73544500D01*
X166740000Y-73544500D02*
X166740000Y-74044500D01*
X168540000Y-73544500D02*
X168740000Y-73544500D01*
X168540000Y-74044500D02*
X168540000Y-73544500D01*
X168640000Y-74044500D02*
X168640000Y-73544500D01*
X168740000Y-73544500D02*
X168740000Y-74044500D01*
X169140000Y-70544500D02*
X169140000Y-69934500D01*
X171090000Y-70544500D02*
X169140000Y-70544500D01*
X171090000Y-74044500D02*
X171090000Y-70544500D01*
X171700000Y-69934500D02*
X161580000Y-69934500D01*
X171700000Y-71244500D02*
X171090000Y-71244500D01*
X171700000Y-72544500D02*
X171090000Y-72544500D01*
X171700000Y-74654500D02*
X171700000Y-69934500D01*
%TO.C,J1*%
X150040000Y-69634500D02*
X150040000Y-70884500D01*
X150340000Y-69934500D02*
X150340000Y-74654500D01*
X150340000Y-71244500D02*
X150950000Y-71244500D01*
X150340000Y-72544500D02*
X150950000Y-72544500D01*
X150340000Y-74654500D02*
X160460000Y-74654500D01*
X150950000Y-70544500D02*
X150950000Y-74044500D01*
X150950000Y-74044500D02*
X159850000Y-74044500D01*
X151290000Y-69634500D02*
X150040000Y-69634500D01*
X151800000Y-69734500D02*
X151800000Y-69934500D01*
X152100000Y-69734500D02*
X151800000Y-69734500D01*
X152100000Y-69834500D02*
X151800000Y-69834500D01*
X152100000Y-69934500D02*
X152100000Y-69734500D01*
X152900000Y-69934500D02*
X152900000Y-70544500D01*
X152900000Y-70544500D02*
X150950000Y-70544500D01*
X153300000Y-73544500D02*
X153500000Y-73544500D01*
X153300000Y-74044500D02*
X153300000Y-73544500D01*
X153400000Y-74044500D02*
X153400000Y-73544500D01*
X153500000Y-73544500D02*
X153500000Y-74044500D01*
X155300000Y-73544500D02*
X155500000Y-73544500D01*
X155300000Y-74044500D02*
X155300000Y-73544500D01*
X155400000Y-74044500D02*
X155400000Y-73544500D01*
X155500000Y-73544500D02*
X155500000Y-74044500D01*
X157300000Y-73544500D02*
X157500000Y-73544500D01*
X157300000Y-74044500D02*
X157300000Y-73544500D01*
X157400000Y-74044500D02*
X157400000Y-73544500D01*
X157500000Y-73544500D02*
X157500000Y-74044500D01*
X157900000Y-70544500D02*
X157900000Y-69934500D01*
X159850000Y-70544500D02*
X157900000Y-70544500D01*
X159850000Y-74044500D02*
X159850000Y-70544500D01*
X160460000Y-69934500D02*
X150340000Y-69934500D01*
X160460000Y-71244500D02*
X159850000Y-71244500D01*
X160460000Y-72544500D02*
X159850000Y-72544500D01*
X160460000Y-74654500D02*
X160460000Y-69934500D01*
%TO.C,U1*%
X151010000Y-67994500D02*
X171570000Y-67994500D01*
X171570000Y-67994500D02*
X171570000Y-57714500D01*
X151070000Y-65504500D02*
X171510000Y-65504500D01*
X171510000Y-65504500D02*
X171510000Y-60204500D01*
X151070000Y-63854500D02*
X151070000Y-65504500D01*
X151070000Y-60204500D02*
X151070000Y-61854500D01*
X171510000Y-60204500D02*
X151070000Y-60204500D01*
X151010000Y-57714500D02*
X151010000Y-67994500D01*
X171570000Y-57714500D02*
X151010000Y-57714500D01*
X151070000Y-63854500D02*
G75*
G03*
X151070000Y-61854500I0J1000000D01*
G01*
%TO.C,C2*%
X219560000Y-61690000D02*
X220185000Y-61690000D01*
X219560000Y-61690000D02*
X219560000Y-57650000D01*
X221775000Y-61690000D02*
X222400000Y-61690000D01*
X222400000Y-61690000D02*
X222400000Y-57650000D01*
X219560000Y-57650000D02*
X220185000Y-57650000D01*
X221775000Y-57650000D02*
X222400000Y-57650000D01*
%TO.C,J7*%
X223831900Y-58155200D02*
X225101900Y-58155200D01*
X223831900Y-59425200D02*
X223831900Y-58155200D01*
X226211900Y-59045200D02*
X226541900Y-59045200D01*
X226211900Y-59805200D02*
X226541900Y-59805200D01*
X226541900Y-58095200D02*
X226541900Y-60755200D01*
X226541900Y-60755200D02*
X229201900Y-60755200D01*
X229201900Y-58095200D02*
X226541900Y-58095200D01*
X229201900Y-59045200D02*
X235201900Y-59045200D01*
X229201900Y-59105200D02*
X235201900Y-59105200D01*
X229201900Y-59225200D02*
X235201900Y-59225200D01*
X229201900Y-59345200D02*
X235201900Y-59345200D01*
X229201900Y-59465200D02*
X235201900Y-59465200D01*
X229201900Y-59585200D02*
X235201900Y-59585200D01*
X229201900Y-59705200D02*
X235201900Y-59705200D01*
X229201900Y-60755200D02*
X229201900Y-58095200D01*
X235201900Y-59045200D02*
X235201900Y-59805200D01*
X235201900Y-59805200D02*
X229201900Y-59805200D01*
%TO.C,J6*%
X207920000Y-69634500D02*
X207920000Y-70884500D01*
X208220000Y-69934500D02*
X208220000Y-74654500D01*
X208220000Y-71244500D02*
X208830000Y-71244500D01*
X208220000Y-72544500D02*
X208830000Y-72544500D01*
X208220000Y-74654500D02*
X218340000Y-74654500D01*
X208830000Y-70544500D02*
X208830000Y-74044500D01*
X208830000Y-74044500D02*
X217730000Y-74044500D01*
X209170000Y-69634500D02*
X207920000Y-69634500D01*
X209680000Y-69734500D02*
X209680000Y-69934500D01*
X209980000Y-69734500D02*
X209680000Y-69734500D01*
X209980000Y-69834500D02*
X209680000Y-69834500D01*
X209980000Y-69934500D02*
X209980000Y-69734500D01*
X210780000Y-69934500D02*
X210780000Y-70544500D01*
X210780000Y-70544500D02*
X208830000Y-70544500D01*
X211180000Y-73544500D02*
X211380000Y-73544500D01*
X211180000Y-74044500D02*
X211180000Y-73544500D01*
X211280000Y-74044500D02*
X211280000Y-73544500D01*
X211380000Y-73544500D02*
X211380000Y-74044500D01*
X213180000Y-73544500D02*
X213380000Y-73544500D01*
X213180000Y-74044500D02*
X213180000Y-73544500D01*
X213280000Y-74044500D02*
X213280000Y-73544500D01*
X213380000Y-73544500D02*
X213380000Y-74044500D01*
X215180000Y-73544500D02*
X215380000Y-73544500D01*
X215180000Y-74044500D02*
X215180000Y-73544500D01*
X215280000Y-74044500D02*
X215280000Y-73544500D01*
X215380000Y-73544500D02*
X215380000Y-74044500D01*
X215780000Y-70544500D02*
X215780000Y-69934500D01*
X217730000Y-70544500D02*
X215780000Y-70544500D01*
X217730000Y-74044500D02*
X217730000Y-70544500D01*
X218340000Y-69934500D02*
X208220000Y-69934500D01*
X218340000Y-71244500D02*
X217730000Y-71244500D01*
X218340000Y-72544500D02*
X217730000Y-72544500D01*
X218340000Y-74654500D02*
X218340000Y-69934500D01*
%TD*%
M02*
