%TF.GenerationSoftware,KiCad,Pcbnew,7.0.10*%
%TF.CreationDate,2024-06-02T15:41:47+02:00*%
%TF.ProjectId,eBoard_pcb,65426f61-7264-45f7-9063-622e6b696361,rev?*%
%TF.SameCoordinates,Original*%
%TF.FileFunction,Soldermask,Bot*%
%TF.FilePolarity,Negative*%
%FSLAX46Y46*%
G04 Gerber Fmt 4.6, Leading zero omitted, Abs format (unit mm)*
G04 Created by KiCad (PCBNEW 7.0.10) date 2024-06-02 15:41:47*
%MOMM*%
%LPD*%
G01*
G04 APERTURE LIST*
G04 Aperture macros list*
%AMRoundRect*
0 Rectangle with rounded corners*
0 $1 Rounding radius*
0 $2 $3 $4 $5 $6 $7 $8 $9 X,Y pos of 4 corners*
0 Add a 4 corners polygon primitive as box body*
4,1,4,$2,$3,$4,$5,$6,$7,$8,$9,$2,$3,0*
0 Add four circle primitives for the rounded corners*
1,1,$1+$1,$2,$3*
1,1,$1+$1,$4,$5*
1,1,$1+$1,$6,$7*
1,1,$1+$1,$8,$9*
0 Add four rect primitives between the rounded corners*
20,1,$1+$1,$2,$3,$4,$5,0*
20,1,$1+$1,$4,$5,$6,$7,0*
20,1,$1+$1,$6,$7,$8,$9,0*
20,1,$1+$1,$8,$9,$2,$3,0*%
G04 Aperture macros list end*
%ADD10RoundRect,0.250000X-0.350000X-0.625000X0.350000X-0.625000X0.350000X0.625000X-0.350000X0.625000X0*%
%ADD11O,1.200000X1.750000*%
%ADD12R,1.600000X1.600000*%
%ADD13O,1.600000X1.600000*%
%ADD14RoundRect,0.250000X0.350000X0.625000X-0.350000X0.625000X-0.350000X-0.625000X0.350000X-0.625000X0*%
%ADD15C,1.600000*%
%ADD16R,1.700000X1.700000*%
G04 APERTURE END LIST*
D10*
%TO.C,J5*%
X199200000Y-71744500D03*
D11*
X201200000Y-71744500D03*
X203200000Y-71744500D03*
X205200000Y-71744500D03*
%TD*%
D12*
%TO.C,A1*%
X143930000Y-58820000D03*
D13*
X141390000Y-58820000D03*
X138850000Y-58820000D03*
X136310000Y-58820000D03*
X133770000Y-58820000D03*
X131230000Y-58820000D03*
X128690000Y-58820000D03*
X126150000Y-58820000D03*
X123610000Y-58820000D03*
X121070000Y-58820000D03*
X118530000Y-58820000D03*
X115990000Y-58820000D03*
X113450000Y-58820000D03*
X110910000Y-58820000D03*
X108370000Y-58820000D03*
X108370000Y-74060000D03*
X110910000Y-74060000D03*
X113450000Y-74060000D03*
X115990000Y-74060000D03*
X118530000Y-74060000D03*
X121070000Y-74060000D03*
X123610000Y-74060000D03*
X126150000Y-74060000D03*
X128690000Y-74060000D03*
X131230000Y-74060000D03*
X133770000Y-74060000D03*
X136310000Y-74060000D03*
X138850000Y-74060000D03*
X141390000Y-74060000D03*
X143930000Y-74060000D03*
%TD*%
D10*
%TO.C,J3*%
X175260000Y-71744500D03*
D11*
X177260000Y-71744500D03*
X179260000Y-71744500D03*
X181260000Y-71744500D03*
%TD*%
D12*
%TO.C,U2*%
X175260000Y-66664500D03*
D13*
X177800000Y-66664500D03*
X180340000Y-66664500D03*
X182880000Y-66664500D03*
X185420000Y-66664500D03*
X187960000Y-66664500D03*
X190500000Y-66664500D03*
X193040000Y-66664500D03*
X193040000Y-59044500D03*
X190500000Y-59044500D03*
X187960000Y-59044500D03*
X185420000Y-59044500D03*
X182880000Y-59044500D03*
X180340000Y-59044500D03*
X177800000Y-59044500D03*
X175260000Y-59044500D03*
%TD*%
D14*
%TO.C,J8*%
X228041100Y-66653100D03*
D11*
X226041100Y-66653100D03*
X224041100Y-66653100D03*
X222041100Y-66653100D03*
%TD*%
D10*
%TO.C,J9*%
X222100100Y-71841600D03*
D11*
X224100100Y-71841600D03*
X226100100Y-71841600D03*
X228100100Y-71841600D03*
%TD*%
D10*
%TO.C,J4*%
X186500000Y-71744500D03*
D11*
X188500000Y-71744500D03*
X190500000Y-71744500D03*
X192500000Y-71744500D03*
%TD*%
D12*
%TO.C,U3*%
X198120000Y-66664500D03*
D13*
X200660000Y-66664500D03*
X203200000Y-66664500D03*
X205740000Y-66664500D03*
X208280000Y-66664500D03*
X210820000Y-66664500D03*
X213360000Y-66664500D03*
X215900000Y-66664500D03*
X215900000Y-59044500D03*
X213360000Y-59044500D03*
X210820000Y-59044500D03*
X208280000Y-59044500D03*
X205740000Y-59044500D03*
X203200000Y-59044500D03*
X200660000Y-59044500D03*
X198120000Y-59044500D03*
%TD*%
D10*
%TO.C,J2*%
X163640000Y-71744500D03*
D11*
X165640000Y-71744500D03*
X167640000Y-71744500D03*
X169640000Y-71744500D03*
%TD*%
D10*
%TO.C,J1*%
X152400000Y-71744500D03*
D11*
X154400000Y-71744500D03*
X156400000Y-71744500D03*
X158400000Y-71744500D03*
%TD*%
D12*
%TO.C,U1*%
X152400000Y-66664500D03*
D13*
X154940000Y-66664500D03*
X157480000Y-66664500D03*
X160020000Y-66664500D03*
X162560000Y-66664500D03*
X165100000Y-66664500D03*
X167640000Y-66664500D03*
X170180000Y-66664500D03*
X170180000Y-59044500D03*
X167640000Y-59044500D03*
X165100000Y-59044500D03*
X162560000Y-59044500D03*
X160020000Y-59044500D03*
X157480000Y-59044500D03*
X154940000Y-59044500D03*
X152400000Y-59044500D03*
%TD*%
D15*
%TO.C,C2*%
X220980000Y-60920000D03*
X220980000Y-58420000D03*
%TD*%
D16*
%TO.C,J7*%
X225101900Y-59425200D03*
%TD*%
D10*
%TO.C,J6*%
X210280000Y-71744500D03*
D11*
X212280000Y-71744500D03*
X214280000Y-71744500D03*
X216280000Y-71744500D03*
%TD*%
M02*
